<svg width="184" height="234" viewBox="0 0 184 234" fill="none" xmlns="http://www.w3.org/2000/svg">
<path d="M97.0081 21.9172L161.16 163.226C162.813 166.868 160.151 171 156.152 171H27.8478C23.8488 171 21.1866 166.868 22.8397 163.226L86.9919 21.9172C88.9449 17.6154 95.0551 17.6154 97.0081 21.9172Z" stroke="#C24332" stroke-width="9"/>
<path d="M16.1075 95.9646L22.7336 99.4783L22.3081 100.281L15.6821 96.767L16.1075 95.9646ZM24.0744 95.0217L21.6716 93.7475C21.4875 93.6499 21.3081 93.6026 21.1333 93.6057C20.9571 93.6044 20.7927 93.6573 20.6402 93.7643C20.4876 93.8713 20.3542 94.0327 20.2398 94.2484C20.133 94.4497 20.0738 94.6448 20.062 94.8339C20.0517 95.02 20.0797 95.186 20.1461 95.3317C20.2141 95.4746 20.3128 95.5803 20.4422 95.649L20.019 96.447C19.8522 96.3586 19.7097 96.2277 19.5915 96.0545C19.4733 95.8813 19.3908 95.6791 19.3439 95.4479C19.2957 95.2123 19.293 94.9604 19.3358 94.692C19.3773 94.4192 19.4727 94.1419 19.6222 93.8601C19.8022 93.5207 20.0183 93.2521 20.2706 93.0543C20.5244 92.8536 20.8066 92.7417 21.1174 92.7185C21.4267 92.691 21.7554 92.7695 22.1034 92.954L24.2776 94.1069C24.4329 94.1893 24.6051 94.264 24.7942 94.3312C24.9849 94.3954 25.158 94.4338 25.3135 94.4463L25.3825 94.4829L24.941 95.3154C24.8277 95.3069 24.6887 95.2737 24.524 95.2159C24.3565 95.1566 24.2067 95.0918 24.0744 95.0217ZM22.1158 93.8062L22.6811 94.0949L22.2534 94.9016C22.1329 95.1288 22.0441 95.3415 21.9869 95.5396C21.9269 95.7362 21.9008 95.914 21.9086 96.0729C21.9164 96.2318 21.9582 96.3719 22.034 96.4931C22.1068 96.6128 22.2151 96.7107 22.3589 96.787C22.5056 96.8648 22.6569 96.9026 22.8127 96.9005C22.9686 96.8984 23.1176 96.8503 23.2596 96.7561C23.4003 96.6576 23.5225 96.5105 23.6262 96.3149C23.7558 96.0705 23.8184 95.8274 23.814 95.5855C23.8096 95.3437 23.7616 95.1285 23.67 94.9399C23.58 94.7484 23.4668 94.611 23.3304 94.5277L23.8951 94.3905C24.0052 94.4747 24.1099 94.6002 24.2093 94.7671C24.3087 94.9341 24.3864 95.1281 24.4422 95.3494C24.4967 95.5662 24.5144 95.8003 24.4953 96.0518C24.4748 96.2989 24.3975 96.5489 24.2633 96.802C24.0955 97.1183 23.8865 97.3631 23.6363 97.5362C23.3876 97.7064 23.1246 97.8028 22.8474 97.8253C22.5688 97.8434 22.3001 97.7838 22.0413 97.6466C21.7911 97.5139 21.597 97.3483 21.4591 97.1499C21.3182 96.9499 21.2334 96.7244 21.2044 96.4732C21.1726 96.2205 21.1922 95.9472 21.2634 95.6533C21.3345 95.3594 21.4547 95.0529 21.6239 94.7336L22.1158 93.8062ZM26.6155 89.9691L20.8954 86.9358L21.3209 86.1334L27.9469 89.6471L27.558 90.3804L26.6155 89.9691ZM23.5741 92.3798L23.4835 92.3318C23.1269 92.1427 22.8262 91.928 22.5815 91.6876C22.3354 91.4429 22.1501 91.1844 22.0256 90.912C21.9026 90.6368 21.8445 90.3572 21.8513 90.0735C21.8567 89.7853 21.9334 89.5017 22.0813 89.2227C22.2369 88.9294 22.4244 88.7009 22.6438 88.5372C22.8619 88.3691 23.1091 88.2608 23.3855 88.212C23.6605 88.1589 23.9583 88.1602 24.2788 88.2159C24.5993 88.2717 24.9412 88.3738 25.3046 88.5223L25.7015 88.7327C26.0269 88.9458 26.3019 89.1709 26.5263 89.4078C26.7522 89.6418 26.9203 89.8875 27.0307 90.145C27.1425 90.3996 27.1915 90.6651 27.1776 90.9414C27.1608 91.2162 27.0739 91.5018 26.9168 91.798C26.772 92.0712 26.5803 92.2901 26.3419 92.4548C26.1051 92.6166 25.8368 92.723 25.537 92.7741C25.2388 92.8223 24.9223 92.8147 24.5874 92.7514C24.2512 92.6836 23.9134 92.5598 23.5741 92.3798ZM23.909 91.5294L23.9995 91.5774C24.2325 91.701 24.4633 91.7939 24.6918 91.8561C24.922 91.9155 25.1413 91.936 25.35 91.9177C25.5587 91.8994 25.7488 91.8363 25.9203 91.7283C26.0889 91.6187 26.2304 91.4561 26.3448 91.2404C26.4851 90.9758 26.5442 90.729 26.522 90.4998C26.5013 90.2678 26.4264 90.0512 26.2973 89.8501C26.1681 89.6489 26.0109 89.4624 25.8257 89.2905L24.7861 88.7392C24.6096 88.6898 24.4305 88.6593 24.2488 88.6477C24.0657 88.6317 23.8892 88.6449 23.7192 88.6875C23.5479 88.7256 23.3881 88.8011 23.2398 88.9141C23.093 89.0241 22.9662 89.1798 22.8595 89.3811C22.7436 89.5997 22.6897 89.8125 22.6979 90.0195C22.7047 90.222 22.7605 90.4156 22.8653 90.6001C22.9672 90.7831 23.1087 90.954 23.2899 91.1127C23.4696 91.267 23.676 91.4059 23.909 91.5294ZM26.2116 87.406L26.1124 87.3534C25.7759 87.1749 25.4898 86.9606 25.2541 86.7103C25.0154 86.4585 24.8385 86.1841 24.7233 85.8872C24.6052 85.5888 24.5566 85.2775 24.5775 84.9532C24.5955 84.6275 24.6906 84.3021 24.863 83.9771C25.0368 83.6493 25.2535 83.3865 25.5131 83.1889C25.7713 82.9868 26.0571 82.8509 26.3704 82.7813C26.6823 82.7072 27.0094 82.6983 27.3517 82.7545C27.6912 82.8092 28.0291 82.9258 28.3656 83.1043L28.4648 83.1569C28.8013 83.3353 29.0874 83.5497 29.3232 83.7999C29.5589 84.0502 29.735 84.326 29.8516 84.6273C29.9668 84.9242 30.0154 85.2356 29.9974 85.5613C29.9781 85.8827 29.8815 86.2073 29.7076 86.5351C29.5338 86.863 29.3185 87.1265 29.0618 87.3257C28.8023 87.5233 28.5165 87.6592 28.2046 87.7333C27.8913 87.8029 27.5649 87.8104 27.2255 87.7557C26.886 87.701 26.5481 87.5844 26.2116 87.406ZM26.5356 86.5553L26.6348 86.6079C26.8677 86.7314 27.1022 86.8208 27.3383 86.8759C27.5714 86.9296 27.7961 86.9437 28.0122 86.9183C28.2299 86.89 28.4289 86.8169 28.6094 86.6989C28.787 86.5793 28.9345 86.4089 29.0519 86.1874C29.1678 85.9689 29.2247 85.754 29.2225 85.5428C29.2189 85.3272 29.167 85.1228 29.0668 84.9296C28.9665 84.7365 28.8288 84.5584 28.6536 84.3955C28.477 84.2282 28.2723 84.0828 28.0393 83.9592L27.9401 83.9066C27.7101 83.7846 27.4777 83.6982 27.243 83.6475C27.007 83.5923 26.7801 83.5789 26.5625 83.6072C26.3435 83.631 26.1437 83.702 25.9632 83.82C25.7843 83.9351 25.6361 84.1034 25.5187 84.3248C25.4028 84.5434 25.3466 84.7605 25.3502 84.9761C25.3553 85.1888 25.4086 85.394 25.5102 85.5915C25.6104 85.7847 25.7496 85.9635 25.9277 86.1279C26.1029 86.2908 26.3055 86.4333 26.5356 86.5553ZM27.4693 75.2893L33.7847 78.6382L33.3615 79.4363L28.0426 76.6157L27.776 78.5359L27.0556 78.1539L27.4029 75.4144L27.4693 75.2893Z" fill="white"/>
<path d="M81.6836 194.5H82.5918V200.975L82.5137 202H81.6836V194.5ZM86.1611 199.314V199.417C86.1611 199.801 86.1156 200.158 86.0244 200.486C85.9333 200.812 85.7998 201.095 85.624 201.336C85.4482 201.577 85.2334 201.764 84.9795 201.897C84.7256 202.031 84.4342 202.098 84.1055 202.098C83.7702 202.098 83.4756 202.041 83.2217 201.927C82.971 201.81 82.7594 201.642 82.5869 201.424C82.4144 201.206 82.276 200.942 82.1719 200.633C82.071 200.324 82.001 199.975 81.9619 199.588V199.139C82.001 198.748 82.071 198.398 82.1719 198.089C82.276 197.78 82.4144 197.516 82.5869 197.298C82.7594 197.076 82.971 196.909 83.2217 196.795C83.4723 196.678 83.7637 196.619 84.0957 196.619C84.4277 196.619 84.7223 196.684 84.9795 196.814C85.2367 196.941 85.4515 197.124 85.624 197.361C85.7998 197.599 85.9333 197.884 86.0244 198.216C86.1156 198.545 86.1611 198.911 86.1611 199.314ZM85.2529 199.417V199.314C85.2529 199.051 85.2285 198.803 85.1797 198.572C85.1309 198.338 85.0527 198.133 84.9453 197.957C84.8379 197.778 84.6963 197.638 84.5205 197.537C84.3447 197.433 84.1283 197.381 83.8711 197.381C83.6432 197.381 83.4447 197.42 83.2754 197.498C83.1094 197.576 82.9678 197.682 82.8506 197.815C82.7334 197.946 82.6374 198.095 82.5625 198.265C82.4909 198.431 82.4372 198.603 82.4014 198.782V199.959C82.4535 200.187 82.5381 200.407 82.6553 200.618C82.7757 200.826 82.9352 200.997 83.1338 201.131C83.3356 201.264 83.5846 201.331 83.8809 201.331C84.125 201.331 84.3333 201.282 84.5059 201.185C84.6816 201.084 84.8232 200.945 84.9307 200.77C85.0413 200.594 85.1227 200.39 85.1748 200.159C85.2269 199.928 85.2529 199.681 85.2529 199.417ZM90.4189 201.097V198.377C90.4189 198.169 90.3766 197.988 90.292 197.835C90.2106 197.679 90.0869 197.558 89.9209 197.474C89.7549 197.389 89.5498 197.347 89.3057 197.347C89.0778 197.347 88.8776 197.386 88.7051 197.464C88.5358 197.542 88.4023 197.645 88.3047 197.771C88.2103 197.898 88.1631 198.035 88.1631 198.182H87.2598C87.2598 197.993 87.3086 197.806 87.4062 197.62C87.5039 197.435 87.6439 197.267 87.8262 197.117C88.0117 196.964 88.2331 196.844 88.4902 196.756C88.7507 196.665 89.0404 196.619 89.3594 196.619C89.7435 196.619 90.082 196.684 90.375 196.814C90.6712 196.945 90.9023 197.142 91.0684 197.405C91.2376 197.666 91.3223 197.993 91.3223 198.387V200.848C91.3223 201.023 91.3369 201.211 91.3662 201.409C91.3988 201.608 91.446 201.779 91.5078 201.922V202H90.5654C90.5199 201.896 90.484 201.757 90.458 201.585C90.432 201.409 90.4189 201.246 90.4189 201.097ZM90.5752 198.797L90.585 199.432H89.6719C89.4147 199.432 89.1852 199.453 88.9834 199.495C88.7816 199.534 88.6123 199.594 88.4756 199.676C88.3389 199.757 88.2347 199.86 88.1631 199.983C88.0915 200.104 88.0557 200.245 88.0557 200.408C88.0557 200.574 88.0931 200.726 88.168 200.862C88.2428 200.999 88.3551 201.108 88.5049 201.189C88.6579 201.268 88.8451 201.307 89.0664 201.307C89.3431 201.307 89.5872 201.248 89.7988 201.131C90.0104 201.014 90.1781 200.87 90.3018 200.701C90.4287 200.532 90.4971 200.368 90.5068 200.208L90.8926 200.643C90.8698 200.779 90.8079 200.931 90.707 201.097C90.6061 201.263 90.471 201.422 90.3018 201.575C90.1357 201.725 89.9372 201.85 89.7061 201.951C89.4782 202.049 89.221 202.098 88.9346 202.098C88.5765 202.098 88.2624 202.028 87.9922 201.888C87.7253 201.748 87.5169 201.561 87.3672 201.326C87.2207 201.089 87.1475 200.823 87.1475 200.53C87.1475 200.247 87.2028 199.998 87.3135 199.783C87.4242 199.565 87.5837 199.384 87.792 199.241C88.0003 199.095 88.251 198.984 88.5439 198.909C88.8369 198.834 89.1641 198.797 89.5254 198.797H90.5752ZM95.8193 200.599C95.8193 200.468 95.79 200.348 95.7314 200.237C95.6761 200.123 95.5605 200.021 95.3848 199.93C95.2122 199.835 94.9518 199.754 94.6035 199.686C94.3105 199.624 94.0452 199.55 93.8076 199.466C93.5732 199.381 93.373 199.279 93.207 199.158C93.0443 199.038 92.9189 198.896 92.8311 198.733C92.7432 198.571 92.6992 198.38 92.6992 198.162C92.6992 197.954 92.7448 197.757 92.8359 197.571C92.9303 197.386 93.0622 197.221 93.2314 197.078C93.404 196.935 93.6107 196.823 93.8516 196.741C94.0924 196.66 94.361 196.619 94.6572 196.619C95.0804 196.619 95.4417 196.694 95.7412 196.844C96.0407 196.993 96.2702 197.194 96.4297 197.444C96.5892 197.692 96.6689 197.967 96.6689 198.27H95.7656C95.7656 198.123 95.7217 197.981 95.6338 197.845C95.5492 197.705 95.4238 197.589 95.2578 197.498C95.0951 197.407 94.8949 197.361 94.6572 197.361C94.4066 197.361 94.2031 197.4 94.0469 197.479C93.8939 197.553 93.7816 197.649 93.71 197.767C93.6416 197.884 93.6074 198.007 93.6074 198.138C93.6074 198.235 93.6237 198.323 93.6562 198.401C93.6921 198.476 93.7539 198.546 93.8418 198.611C93.9297 198.673 94.0534 198.732 94.2129 198.787C94.3724 198.842 94.5758 198.898 94.8232 198.953C95.2562 199.051 95.6126 199.168 95.8926 199.305C96.1725 199.441 96.3809 199.609 96.5176 199.808C96.6543 200.006 96.7227 200.247 96.7227 200.53C96.7227 200.761 96.6738 200.973 96.5762 201.165C96.4818 201.357 96.3434 201.523 96.1611 201.663C95.9821 201.8 95.7673 201.907 95.5166 201.985C95.2692 202.06 94.9909 202.098 94.6816 202.098C94.2161 202.098 93.8223 202.015 93.5 201.849C93.1777 201.683 92.9336 201.468 92.7676 201.204C92.6016 200.94 92.5186 200.662 92.5186 200.369H93.4268C93.4398 200.617 93.5114 200.813 93.6416 200.96C93.7718 201.103 93.9313 201.206 94.1201 201.268C94.3089 201.326 94.4961 201.355 94.6816 201.355C94.929 201.355 95.1357 201.323 95.3018 201.258C95.471 201.193 95.5996 201.103 95.6875 200.989C95.7754 200.875 95.8193 200.745 95.8193 200.599ZM100.102 202.098C99.7337 202.098 99.4001 202.036 99.1006 201.912C98.8044 201.785 98.5488 201.608 98.334 201.38C98.1224 201.152 97.9596 200.882 97.8457 200.569C97.7318 200.257 97.6748 199.915 97.6748 199.544V199.339C97.6748 198.909 97.7383 198.527 97.8652 198.191C97.9922 197.853 98.1647 197.566 98.3828 197.332C98.6009 197.098 98.8483 196.92 99.125 196.8C99.4017 196.679 99.6882 196.619 99.9844 196.619C100.362 196.619 100.688 196.684 100.961 196.814C101.238 196.945 101.464 197.127 101.64 197.361C101.815 197.592 101.946 197.866 102.03 198.182C102.115 198.494 102.157 198.836 102.157 199.207V199.612H98.2119V198.875H101.254V198.807C101.241 198.572 101.192 198.344 101.107 198.123C101.026 197.902 100.896 197.719 100.717 197.576C100.538 197.433 100.294 197.361 99.9844 197.361C99.7793 197.361 99.5905 197.405 99.418 197.493C99.2454 197.578 99.0973 197.705 98.9736 197.874C98.8499 198.043 98.7539 198.25 98.6855 198.494C98.6172 198.738 98.583 199.02 98.583 199.339V199.544C98.583 199.795 98.6172 200.031 98.6855 200.252C98.7572 200.47 98.8597 200.662 98.9932 200.828C99.1299 200.994 99.2943 201.124 99.4863 201.219C99.6816 201.313 99.903 201.36 100.15 201.36C100.469 201.36 100.74 201.295 100.961 201.165C101.182 201.035 101.376 200.861 101.542 200.643L102.089 201.077C101.975 201.25 101.83 201.414 101.654 201.57C101.479 201.727 101.262 201.854 101.005 201.951C100.751 202.049 100.45 202.098 100.102 202.098Z" fill="white"/>
<path d="M101.043 114.277V112.102C101.043 111.935 101.009 111.79 100.941 111.668C100.876 111.543 100.777 111.447 100.645 111.379C100.512 111.311 100.348 111.277 100.152 111.277C99.9701 111.277 99.8099 111.309 99.6719 111.371C99.5365 111.434 99.4297 111.516 99.3516 111.617C99.276 111.719 99.2383 111.828 99.2383 111.945H98.5156C98.5156 111.794 98.5547 111.645 98.6328 111.496C98.7109 111.348 98.8229 111.214 98.9688 111.094C99.1172 110.971 99.2943 110.875 99.5 110.805C99.7083 110.732 99.9401 110.695 100.195 110.695C100.503 110.695 100.773 110.747 101.008 110.852C101.245 110.956 101.43 111.113 101.562 111.324C101.698 111.533 101.766 111.794 101.766 112.109V114.078C101.766 114.219 101.777 114.368 101.801 114.527C101.827 114.686 101.865 114.823 101.914 114.938V115H101.16C101.124 114.917 101.095 114.806 101.074 114.668C101.053 114.527 101.043 114.397 101.043 114.277ZM101.168 112.438L101.176 112.945H100.445C100.24 112.945 100.056 112.962 99.8945 112.996C99.7331 113.027 99.5977 113.076 99.4883 113.141C99.3789 113.206 99.2956 113.288 99.2383 113.387C99.181 113.483 99.1523 113.596 99.1523 113.727C99.1523 113.859 99.1823 113.98 99.2422 114.09C99.3021 114.199 99.3919 114.286 99.5117 114.352C99.6341 114.414 99.7839 114.445 99.9609 114.445C100.182 114.445 100.378 114.398 100.547 114.305C100.716 114.211 100.85 114.096 100.949 113.961C101.051 113.826 101.105 113.694 101.113 113.566L101.422 113.914C101.404 114.023 101.354 114.145 101.273 114.277C101.193 114.41 101.085 114.538 100.949 114.66C100.816 114.78 100.658 114.88 100.473 114.961C100.29 115.039 100.085 115.078 99.8555 115.078C99.569 115.078 99.3177 115.022 99.1016 114.91C98.888 114.798 98.7214 114.648 98.6016 114.461C98.4844 114.271 98.4258 114.059 98.4258 113.824C98.4258 113.598 98.4701 113.398 98.5586 113.227C98.6471 113.052 98.7747 112.908 98.9414 112.793C99.1081 112.676 99.3086 112.587 99.543 112.527C99.7773 112.467 100.039 112.438 100.328 112.438H101.168ZM103.688 109V115H102.961V109H103.688ZM106.617 110.773V111.328H104.332V110.773H106.617ZM105.105 109.746H105.828V113.953C105.828 114.096 105.85 114.204 105.895 114.277C105.939 114.35 105.996 114.398 106.066 114.422C106.137 114.445 106.212 114.457 106.293 114.457C106.353 114.457 106.415 114.452 106.48 114.441C106.548 114.428 106.599 114.418 106.633 114.41L106.637 115C106.579 115.018 106.504 115.035 106.41 115.051C106.319 115.069 106.208 115.078 106.078 115.078C105.901 115.078 105.738 115.043 105.59 114.973C105.441 114.902 105.323 114.785 105.234 114.621C105.148 114.454 105.105 114.23 105.105 113.949V109.746ZM110.051 114.023V110.773H110.777V115H110.086L110.051 114.023ZM110.188 113.133L110.488 113.125C110.488 113.406 110.458 113.667 110.398 113.906C110.341 114.143 110.247 114.349 110.117 114.523C109.987 114.698 109.816 114.835 109.605 114.934C109.395 115.03 109.138 115.078 108.836 115.078C108.63 115.078 108.441 115.048 108.27 114.988C108.1 114.928 107.954 114.836 107.832 114.711C107.71 114.586 107.615 114.423 107.547 114.223C107.482 114.022 107.449 113.781 107.449 113.5V110.773H108.172V113.508C108.172 113.698 108.193 113.855 108.234 113.98C108.279 114.103 108.337 114.201 108.41 114.273C108.486 114.344 108.569 114.393 108.66 114.422C108.754 114.451 108.85 114.465 108.949 114.465C109.257 114.465 109.5 114.406 109.68 114.289C109.859 114.169 109.988 114.009 110.066 113.809C110.147 113.605 110.188 113.38 110.188 113.133ZM112.602 111.438V115H111.879V110.773H112.582L112.602 111.438ZM113.922 110.75L113.918 111.422C113.858 111.409 113.801 111.401 113.746 111.398C113.694 111.393 113.634 111.391 113.566 111.391C113.4 111.391 113.253 111.417 113.125 111.469C112.997 111.521 112.889 111.594 112.801 111.688C112.712 111.781 112.642 111.893 112.59 112.023C112.54 112.151 112.508 112.292 112.492 112.445L112.289 112.562C112.289 112.307 112.314 112.068 112.363 111.844C112.415 111.62 112.495 111.422 112.602 111.25C112.708 111.076 112.844 110.94 113.008 110.844C113.174 110.745 113.372 110.695 113.602 110.695C113.654 110.695 113.714 110.702 113.781 110.715C113.849 110.725 113.896 110.737 113.922 110.75ZM116.926 114.277V112.102C116.926 111.935 116.892 111.79 116.824 111.668C116.759 111.543 116.66 111.447 116.527 111.379C116.395 111.311 116.23 111.277 116.035 111.277C115.853 111.277 115.693 111.309 115.555 111.371C115.419 111.434 115.312 111.516 115.234 111.617C115.159 111.719 115.121 111.828 115.121 111.945H114.398C114.398 111.794 114.438 111.645 114.516 111.496C114.594 111.348 114.706 111.214 114.852 111.094C115 110.971 115.177 110.875 115.383 110.805C115.591 110.732 115.823 110.695 116.078 110.695C116.385 110.695 116.656 110.747 116.891 110.852C117.128 110.956 117.312 111.113 117.445 111.324C117.581 111.533 117.648 111.794 117.648 112.109V114.078C117.648 114.219 117.66 114.368 117.684 114.527C117.71 114.686 117.747 114.823 117.797 114.938V115H117.043C117.007 114.917 116.978 114.806 116.957 114.668C116.936 114.527 116.926 114.397 116.926 114.277ZM117.051 112.438L117.059 112.945H116.328C116.122 112.945 115.939 112.962 115.777 112.996C115.616 113.027 115.48 113.076 115.371 113.141C115.262 113.206 115.178 113.288 115.121 113.387C115.064 113.483 115.035 113.596 115.035 113.727C115.035 113.859 115.065 113.98 115.125 114.09C115.185 114.199 115.275 114.286 115.395 114.352C115.517 114.414 115.667 114.445 115.844 114.445C116.065 114.445 116.26 114.398 116.43 114.305C116.599 114.211 116.733 114.096 116.832 113.961C116.934 113.826 116.988 113.694 116.996 113.566L117.305 113.914C117.286 114.023 117.237 114.145 117.156 114.277C117.076 114.41 116.967 114.538 116.832 114.66C116.699 114.78 116.54 114.88 116.355 114.961C116.173 115.039 115.967 115.078 115.738 115.078C115.452 115.078 115.201 115.022 114.984 114.91C114.771 114.798 114.604 114.648 114.484 114.461C114.367 114.271 114.309 114.059 114.309 113.824C114.309 113.598 114.353 113.398 114.441 113.227C114.53 113.052 114.658 112.908 114.824 112.793C114.991 112.676 115.191 112.587 115.426 112.527C115.66 112.467 115.922 112.438 116.211 112.438H117.051Z" fill="white"/>
<path d="M48.8371 71.8625L39.8439 91.8176C39.7453 92.0365 39.443 92.532 38.937 93.3043C38.4945 94.0526 37.7851 94.5752 36.8088 94.8723C37.2526 95.7568 37.3309 96.6345 37.0437 97.5054C36.8003 98.396 36.6292 98.9507 36.5306 99.1695L27.212 119.847L30.8223 121.474L30.2307 122.787L26.8173 121.248C26.4672 121.091 26.1861 120.78 25.9741 120.315C25.8058 119.871 25.8794 119.299 26.195 118.599L35.2178 98.5779C35.5136 97.9215 35.6782 97.2059 35.7114 96.4311C35.7447 95.6564 35.3872 95.0477 34.6389 94.6052L35.2306 93.2924C35.8432 93.5685 36.3696 93.5688 36.8097 93.2933C37.3132 92.9937 37.6953 92.6131 37.956 92.1514C38.2605 91.7095 38.4522 91.401 38.5311 91.226L47.2284 71.9273C47.6229 71.0521 48.0663 70.5938 48.5588 70.5525C49.095 70.5309 49.4506 70.5595 49.6257 70.6384L53.0391 72.1767L52.4474 73.4896L48.8371 71.8625Z" fill="#C24332"/>
<path d="M63.16 184.504H85.048C85.288 184.504 85.864 184.576 86.776 184.72C87.64 184.816 88.408 185.248 89.08 186.016C89.704 185.248 90.472 184.816 91.384 184.72C92.296 184.576 92.872 184.504 93.112 184.504H115.792V180.544H117.232V184.288C117.232 184.672 117.064 185.056 116.728 185.44C116.392 185.776 115.84 185.944 115.072 185.944H93.112C92.392 185.944 91.672 186.088 90.952 186.376C90.232 186.664 89.824 187.24 89.728 188.104H88.288C88.288 187.432 88.072 186.952 87.64 186.664C87.16 186.328 86.656 186.136 86.128 186.088C85.6 185.992 85.24 185.944 85.048 185.944H63.88C62.92 185.944 62.32 185.728 62.08 185.296C61.84 184.816 61.72 184.48 61.72 184.288V180.544H63.16V184.504Z" fill="#C24332"/>
<line x1="92.5" y1="25" x2="92.5" y2="169" stroke="#C24332" stroke-dasharray="2 2"/>
</svg>
