<svg width="108" height="74" viewBox="0 0 108 74" fill="none" xmlns="http://www.w3.org/2000/svg">
<path d="M107.719 35.3297L96.9192 3.61543C96.5634 2.56204 95.8769 1.64545 94.9577 0.996266C94.0385 0.347087 92.9335 -0.00155915 91.8 5.24165e-06H75.6V10.5714H87.9066L95.1102 31.7143H70.2C64.2438 31.7143 59.4 36.4556 59.4 42.2857H48.6C48.6 36.4556 43.7562 31.7143 37.8 31.7143H12.8898L20.0934 10.5714H32.4V5.24165e-06H16.2C15.0667 -0.000754718 13.962 0.348206 13.043 0.997272C12.124 1.64634 11.4374 2.56247 11.0808 3.61543L0.2808 35.3297L0.345599 35.3509C0.134167 35.877 0.0172464 36.4349 0 37V58.1429C0 66.8854 7.2684 74 16.2 74H32.4C41.3316 74 48.6 66.8854 48.6 58.1429V52.8571H59.4V58.1429C59.4 66.8854 66.6684 74 75.6 74H91.8C100.732 74 108 66.8854 108 58.1429V37C107.981 36.4339 107.866 35.8747 107.66 35.3456L107.719 35.3297ZM37.8 58.1429C37.8 61.0553 35.3808 63.4286 32.4 63.4286H16.2C13.2192 63.4286 10.8 61.0553 10.8 58.1429V42.2857H37.8V58.1429ZM97.2 58.1429C97.2 61.0553 94.7808 63.4286 91.8 63.4286H75.6C72.6192 63.4286 70.2 61.0553 70.2 58.1429V42.2857H97.2V58.1429Z" fill="#63948C"/>
<path d="M29.6889 49.024L30.8649 47.152L29.1369 46.648L29.7129 44.8L31.5129 45.664L31.3449 43.696H33.6489L33.4809 45.664L35.2809 44.8L35.8569 46.648L34.1289 47.152L35.3049 49.024L33.6489 50.104L32.4969 48.112L31.3449 50.104L29.6889 49.024Z" fill="#EBE6D1"/>
<path d="M25.5832 49.68V53.28H23.5432V55.56H19.4632V53.28H17.4232V49.68H19.4632V47.4H23.5432V49.68H25.5832Z" fill="#EBE6D1"/>
<path d="M12.1822 46.562V43.502H17.8162V46.562H12.1822Z" fill="#EBE6D1"/>
<path d="M34.761 55.61L30.117 62H28.236L32.871 55.61H34.761Z" fill="#EBE6D1"/>
<path d="M14.7095 60.192V59.232H17.2935V60.192H14.7095ZM14.7095 58.352V57.392H17.2935V58.352H14.7095Z" fill="#EBE6D1"/>
</svg>
