<svg width="202" height="168" viewBox="0 0 202 168" fill="none" xmlns="http://www.w3.org/2000/svg">
<path d="M16.4782 64.4001L22.4017 69.0003L21.8446 69.7176L15.9211 65.1174L16.4782 64.4001ZM24.4885 64.8404L22.3404 63.1723C22.1759 63.0445 22.0073 62.9671 21.8345 62.9401C21.6612 62.9085 21.4902 62.9323 21.3215 63.0116C21.1528 63.0908 20.9936 63.2268 20.8439 63.4196C20.7041 63.5996 20.6122 63.7816 20.5681 63.9658C20.5259 64.1474 20.5251 64.3157 20.5654 64.4707C20.6078 64.6232 20.6868 64.7443 20.8025 64.8341L20.2485 65.5476C20.0994 65.4318 19.9815 65.2784 19.8948 65.0875C19.8082 64.8965 19.7616 64.6832 19.7552 64.4473C19.7481 64.207 19.7888 63.9583 19.8771 63.7012C19.9648 63.4397 20.1066 63.1829 20.3022 62.9309C20.5378 62.6276 20.7969 62.4001 21.0794 62.2486C21.364 62.0945 21.6613 62.0327 21.9713 62.0634C22.2808 62.0894 22.5911 62.2232 22.9022 62.4648L24.8459 63.9742C24.9847 64.0821 25.1415 64.1853 25.3163 64.2839C25.4931 64.38 25.657 64.4476 25.8081 64.4866L25.8698 64.5345L25.2918 65.2788C25.1816 65.2509 25.0503 65.1943 24.8981 65.1091C24.7433 65.0218 24.6068 64.9323 24.4885 64.8404ZM22.7679 63.3064L23.2753 63.688L22.7152 64.4092C22.5575 64.6123 22.4334 64.8065 22.3431 64.9919C22.2501 65.1752 22.1939 65.3459 22.1743 65.5038C22.1547 65.6617 22.1718 65.8068 22.2256 65.9393C22.2768 66.0697 22.3666 66.1848 22.4952 66.2847C22.6263 66.3865 22.7688 66.4498 22.9227 66.4745C23.0766 66.4992 23.2316 66.4774 23.3878 66.4091C23.5433 66.3361 23.689 66.2123 23.8247 66.0374C23.9944 65.8189 24.0979 65.5901 24.1351 65.3512C24.1724 65.1122 24.1621 64.8919 24.1042 64.6904C24.0484 64.4863 23.9605 64.3315 23.8405 64.2259L24.4204 64.1878C24.5144 64.2897 24.596 64.4314 24.6652 64.6129C24.7344 64.7944 24.7775 64.9989 24.7946 65.2265C24.811 65.4494 24.7882 65.6831 24.7261 65.9276C24.6635 66.1674 24.5443 66.4005 24.3686 66.6267C24.149 66.9096 23.901 67.1147 23.6248 67.2423C23.3505 67.3672 23.0749 67.417 22.7979 67.3915C22.5204 67.3614 22.2659 67.2565 22.0346 67.0768C21.8109 66.9031 21.6481 66.7067 21.5463 66.4875C21.442 66.2663 21.3971 66.0295 21.4118 65.7771C21.4239 65.5227 21.4902 65.2569 21.6108 64.9796C21.7313 64.7023 21.9024 64.4209 22.124 64.1355L22.7679 63.3064ZM27.8602 60.2998L22.7465 56.3285L23.3036 55.6112L29.2271 60.2114L28.718 60.867L27.8602 60.2998ZM24.4497 62.1519L24.3687 62.089C24.0499 61.8414 23.7906 61.5782 23.5908 61.2994C23.3905 61.0161 23.2524 60.7295 23.1765 60.4398C23.1026 60.1475 23.0934 59.8622 23.1489 59.5838C23.2038 59.3008 23.3281 59.0346 23.5218 58.7852C23.7254 58.523 23.9494 58.3301 24.1937 58.2066C24.4374 58.0785 24.6996 58.0142 24.9802 58.0137C25.2603 58.0087 25.5534 58.0611 25.8596 58.1711C26.1657 58.2811 26.485 58.4405 26.8175 58.6492L27.1723 58.9247C27.4563 59.1906 27.6884 59.4595 27.8688 59.7315C28.0511 60.0008 28.1745 60.2718 28.239 60.5444C28.3054 60.8145 28.308 61.0844 28.2468 61.3543C28.1831 61.6221 28.0484 61.8884 27.8427 62.1532C27.653 62.3975 27.4266 62.5802 27.1635 62.7015C26.9023 62.8202 26.6197 62.8789 26.3157 62.8777C26.0136 62.8739 25.7031 62.812 25.3841 62.6921C25.0645 62.5676 24.7531 62.3875 24.4497 62.1519ZM24.9258 61.3717L25.0067 61.4346C25.215 61.5963 25.4264 61.7275 25.6408 61.8281C25.8573 61.9262 26.0699 61.9841 26.2786 62.0019C26.4874 62.0198 26.6855 61.9902 26.873 61.9133C27.0579 61.8343 27.2253 61.6985 27.375 61.5056C27.5587 61.2691 27.6593 61.0361 27.6769 60.8065C27.6964 60.5744 27.6598 60.3482 27.5672 60.1278C27.4745 59.9075 27.3517 59.6967 27.1988 59.4956L26.2694 58.7738C26.104 58.6948 25.9328 58.634 25.7558 58.5913C25.5782 58.544 25.402 58.5268 25.2273 58.5394C25.052 58.5476 24.8816 58.5945 24.7161 58.6803C24.5525 58.7635 24.4009 58.8951 24.2611 59.075C24.1094 59.2704 24.0197 59.4708 23.9922 59.6761C23.9641 59.8768 23.9858 60.0771 24.0573 60.2769C24.1263 60.4747 24.2363 60.6673 24.3875 60.8548C24.5381 61.0377 24.7175 61.21 24.9258 61.3717ZM27.9028 57.7054L27.8141 57.6365C27.5133 57.4029 27.2683 57.1426 27.0791 56.8555C26.8873 56.5664 26.7602 56.2657 26.6977 55.9534C26.6327 55.6392 26.6383 55.3241 26.7146 55.0083C26.7883 54.6905 26.938 54.3863 27.1636 54.0958C27.3912 53.8027 27.6498 53.5811 27.9395 53.431C28.2286 53.2763 28.5335 53.1916 28.8541 53.1768C29.1741 53.1574 29.4979 53.2049 29.8254 53.3191C30.1504 53.4314 30.4633 53.6043 30.7641 53.8379L30.8528 53.9068C31.1536 54.1404 31.3986 54.4007 31.5879 54.6878C31.7771 54.9749 31.9032 55.2768 31.9662 55.5937C32.0287 55.906 32.0231 56.221 31.9494 56.5389C31.8751 56.8521 31.7241 57.1553 31.4965 57.4484C31.2689 57.7415 31.0116 57.964 30.7245 58.1161C30.4348 58.2662 30.1299 58.351 29.8099 58.3703C29.4893 58.3851 29.1665 58.3364 28.8415 58.2242C28.5165 58.1119 28.2036 57.939 27.9028 57.7054ZM28.3682 56.9231L28.4569 56.9919C28.6651 57.1537 28.8808 57.282 29.1038 57.3769C29.3243 57.4698 29.5432 57.5223 29.7605 57.5344C29.9797 57.544 30.1884 57.5061 30.3865 57.4209C30.582 57.3337 30.7566 57.1911 30.9103 56.9931C31.0621 56.7977 31.155 56.5958 31.1891 56.3874C31.2226 56.1744 31.2066 55.9641 31.1411 55.7566C31.0756 55.5491 30.9705 55.35 30.8259 55.1594C30.6807 54.9642 30.504 54.7858 30.2958 54.6241L30.2071 54.5552C30.0014 54.3955 29.7873 54.2704 29.5648 54.1801C29.3418 54.0852 29.1206 54.033 28.9014 54.0234C28.6815 54.0093 28.4726 54.0448 28.2745 54.1301C28.0784 54.2127 27.9035 54.353 27.7498 54.551C27.598 54.7464 27.5054 54.9506 27.4719 55.1636C27.4403 55.374 27.4576 55.5853 27.5237 55.7974C27.5892 56.0049 27.6956 56.2049 27.8428 56.3976C27.9874 56.5882 28.1625 56.7633 28.3682 56.9231ZM31.2243 45.9851L36.8701 50.3697L36.3161 51.0831L31.5611 47.3904L30.9684 49.2362L30.3244 48.736L31.1374 46.097L31.2243 45.9851Z" fill="white"/>
<path d="M52.4509 43.5499L39.4693 61.1727C39.327 61.3659 38.9274 61.787 38.2706 62.4358C37.6808 63.0745 36.8775 63.4367 35.8606 63.5222C36.1089 64.4801 36.0012 65.3547 35.5376 66.1459C35.1126 66.9656 34.829 67.472 34.6866 67.6653L21.2353 85.9257L24.4236 88.2744L23.5696 89.4338L20.5552 87.2132C20.246 86.9855 20.0365 86.6225 19.9266 86.1242C19.8553 85.6544 20.0474 85.1103 20.5029 84.492L33.5272 66.8112C33.9543 66.2315 34.2654 65.5664 34.4605 64.8159C34.6556 64.0654 34.4339 63.3953 33.7952 62.8056L34.6492 61.6462C35.1903 62.0447 35.7048 62.1555 36.1929 61.9785C36.7482 61.7913 37.2017 61.4994 37.5535 61.1028C37.9439 60.7346 38.1961 60.4732 38.3099 60.3186L50.8645 43.2755C51.4339 42.5026 51.9636 42.1476 52.4538 42.2106C52.9826 42.3021 53.3243 42.4047 53.4789 42.5186L56.4933 44.7391L55.6393 45.8985L52.4509 43.5499Z" fill="#C24332"/>
<path d="M93.9528 151H94.861V157.475L94.7829 158.5H93.9528V151ZM98.4303 155.814V155.917C98.4303 156.301 98.3848 156.658 98.2936 156.986C98.2025 157.312 98.069 157.595 97.8932 157.836C97.7174 158.077 97.5026 158.264 97.2487 158.397C96.9948 158.531 96.7034 158.598 96.3747 158.598C96.0394 158.598 95.7448 158.541 95.4909 158.427C95.2402 158.31 95.0286 158.142 94.8561 157.924C94.6836 157.706 94.5452 157.442 94.4411 157.133C94.3402 156.824 94.2702 156.475 94.2311 156.088V155.639C94.2702 155.248 94.3402 154.898 94.4411 154.589C94.5452 154.28 94.6836 154.016 94.8561 153.798C95.0286 153.576 95.2402 153.409 95.4909 153.295C95.7415 153.178 96.0329 153.119 96.3649 153.119C96.6969 153.119 96.9915 153.184 97.2487 153.314C97.5058 153.441 97.7207 153.624 97.8932 153.861C98.069 154.099 98.2025 154.384 98.2936 154.716C98.3848 155.045 98.4303 155.411 98.4303 155.814ZM97.5221 155.917V155.814C97.5221 155.551 97.4977 155.303 97.4489 155.072C97.4001 154.838 97.3219 154.633 97.2145 154.457C97.1071 154.278 96.9655 154.138 96.7897 154.037C96.6139 153.933 96.3975 153.881 96.1403 153.881C95.9124 153.881 95.7139 153.92 95.5446 153.998C95.3786 154.076 95.237 154.182 95.1198 154.315C95.0026 154.446 94.9066 154.595 94.8317 154.765C94.7601 154.931 94.7064 155.103 94.6706 155.282V156.459C94.7226 156.687 94.8073 156.907 94.9245 157.118C95.0449 157.326 95.2044 157.497 95.403 157.631C95.6048 157.764 95.8538 157.831 96.1501 157.831C96.3942 157.831 96.6025 157.782 96.7751 157.685C96.9508 157.584 97.0924 157.445 97.1999 157.27C97.3105 157.094 97.3919 156.89 97.444 156.659C97.4961 156.428 97.5221 156.181 97.5221 155.917ZM102.688 157.597V154.877C102.688 154.669 102.646 154.488 102.561 154.335C102.48 154.179 102.356 154.058 102.19 153.974C102.024 153.889 101.819 153.847 101.575 153.847C101.347 153.847 101.147 153.886 100.974 153.964C100.805 154.042 100.672 154.145 100.574 154.271C100.479 154.398 100.432 154.535 100.432 154.682H99.529C99.529 154.493 99.5778 154.306 99.6754 154.12C99.7731 153.935 99.9131 153.767 100.095 153.617C100.281 153.464 100.502 153.344 100.759 153.256C101.02 153.165 101.31 153.119 101.629 153.119C102.013 153.119 102.351 153.184 102.644 153.314C102.94 153.445 103.172 153.642 103.338 153.905C103.507 154.166 103.591 154.493 103.591 154.887V157.348C103.591 157.523 103.606 157.711 103.635 157.909C103.668 158.108 103.715 158.279 103.777 158.422V158.5H102.835C102.789 158.396 102.753 158.257 102.727 158.085C102.701 157.909 102.688 157.746 102.688 157.597ZM102.844 155.297L102.854 155.932H101.941C101.684 155.932 101.454 155.953 101.253 155.995C101.051 156.034 100.882 156.094 100.745 156.176C100.608 156.257 100.504 156.36 100.432 156.483C100.361 156.604 100.325 156.745 100.325 156.908C100.325 157.074 100.362 157.226 100.437 157.362C100.512 157.499 100.624 157.608 100.774 157.689C100.927 157.768 101.114 157.807 101.336 157.807C101.612 157.807 101.856 157.748 102.068 157.631C102.28 157.514 102.447 157.37 102.571 157.201C102.698 157.032 102.766 156.868 102.776 156.708L103.162 157.143C103.139 157.279 103.077 157.431 102.976 157.597C102.875 157.763 102.74 157.922 102.571 158.075C102.405 158.225 102.206 158.35 101.975 158.451C101.747 158.549 101.49 158.598 101.204 158.598C100.846 158.598 100.532 158.528 100.261 158.388C99.9945 158.248 99.7861 158.061 99.6364 157.826C99.4899 157.589 99.4167 157.323 99.4167 157.03C99.4167 156.747 99.472 156.498 99.5827 156.283C99.6933 156.065 99.8529 155.884 100.061 155.741C100.27 155.595 100.52 155.484 100.813 155.409C101.106 155.334 101.433 155.297 101.795 155.297H102.844ZM108.089 157.099C108.089 156.968 108.059 156.848 108.001 156.737C107.945 156.623 107.83 156.521 107.654 156.43C107.481 156.335 107.221 156.254 106.873 156.186C106.58 156.124 106.314 156.05 106.077 155.966C105.842 155.881 105.642 155.779 105.476 155.658C105.313 155.538 105.188 155.396 105.1 155.233C105.012 155.071 104.968 154.88 104.968 154.662C104.968 154.454 105.014 154.257 105.105 154.071C105.2 153.886 105.331 153.721 105.501 153.578C105.673 153.435 105.88 153.323 106.121 153.241C106.362 153.16 106.63 153.119 106.926 153.119C107.35 153.119 107.711 153.194 108.01 153.344C108.31 153.493 108.539 153.694 108.699 153.944C108.858 154.192 108.938 154.467 108.938 154.77H108.035C108.035 154.623 107.991 154.481 107.903 154.345C107.818 154.205 107.693 154.089 107.527 153.998C107.364 153.907 107.164 153.861 106.926 153.861C106.676 153.861 106.472 153.9 106.316 153.979C106.163 154.053 106.051 154.149 105.979 154.267C105.911 154.384 105.877 154.507 105.877 154.638C105.877 154.735 105.893 154.823 105.925 154.901C105.961 154.976 106.023 155.046 106.111 155.111C106.199 155.173 106.323 155.232 106.482 155.287C106.642 155.342 106.845 155.398 107.092 155.453C107.525 155.551 107.882 155.668 108.162 155.805C108.442 155.941 108.65 156.109 108.787 156.308C108.923 156.506 108.992 156.747 108.992 157.03C108.992 157.261 108.943 157.473 108.845 157.665C108.751 157.857 108.613 158.023 108.43 158.163C108.251 158.3 108.036 158.407 107.786 158.485C107.538 158.56 107.26 158.598 106.951 158.598C106.485 158.598 106.091 158.515 105.769 158.349C105.447 158.183 105.203 157.968 105.037 157.704C104.871 157.44 104.788 157.162 104.788 156.869H105.696C105.709 157.117 105.781 157.313 105.911 157.46C106.041 157.603 106.201 157.706 106.389 157.768C106.578 157.826 106.765 157.855 106.951 157.855C107.198 157.855 107.405 157.823 107.571 157.758C107.74 157.693 107.869 157.603 107.957 157.489C108.045 157.375 108.089 157.245 108.089 157.099ZM112.371 158.598C112.003 158.598 111.669 158.536 111.37 158.412C111.074 158.285 110.818 158.108 110.603 157.88C110.392 157.652 110.229 157.382 110.115 157.069C110.001 156.757 109.944 156.415 109.944 156.044V155.839C109.944 155.409 110.007 155.027 110.134 154.691C110.261 154.353 110.434 154.066 110.652 153.832C110.87 153.598 111.118 153.42 111.394 153.3C111.671 153.179 111.957 153.119 112.254 153.119C112.631 153.119 112.957 153.184 113.23 153.314C113.507 153.445 113.733 153.627 113.909 153.861C114.085 154.092 114.215 154.366 114.299 154.682C114.384 154.994 114.426 155.336 114.426 155.707V156.112H110.481V155.375H113.523V155.307C113.51 155.072 113.461 154.844 113.377 154.623C113.295 154.402 113.165 154.219 112.986 154.076C112.807 153.933 112.563 153.861 112.254 153.861C112.048 153.861 111.86 153.905 111.687 153.993C111.515 154.078 111.367 154.205 111.243 154.374C111.119 154.543 111.023 154.75 110.955 154.994C110.886 155.238 110.852 155.52 110.852 155.839V156.044C110.852 156.295 110.886 156.531 110.955 156.752C111.026 156.97 111.129 157.162 111.262 157.328C111.399 157.494 111.563 157.624 111.756 157.719C111.951 157.813 112.172 157.86 112.42 157.86C112.739 157.86 113.009 157.795 113.23 157.665C113.451 157.535 113.645 157.361 113.811 157.143L114.358 157.577C114.244 157.75 114.099 157.914 113.923 158.07C113.748 158.227 113.531 158.354 113.274 158.451C113.02 158.549 112.719 158.598 112.371 158.598Z" fill="white"/>
<path d="M175.165 41.7419L169.343 46.4701L168.77 45.7651L174.592 41.0369L175.165 41.7419ZM172.922 49.4446L175.033 47.73C175.195 47.5986 175.309 47.4519 175.374 47.2897C175.444 47.128 175.459 46.9561 175.421 46.7739C175.382 46.5916 175.285 46.4058 175.131 46.2163C174.988 46.0394 174.831 45.9086 174.662 45.8239C174.494 45.7418 174.331 45.7028 174.17 45.7071C174.012 45.7138 173.876 45.7634 173.763 45.8557L173.193 45.1545C173.34 45.0355 173.516 44.9554 173.721 44.9142C173.927 44.8731 174.145 44.876 174.377 44.9231C174.612 44.9707 174.845 45.0666 175.076 45.2108C175.311 45.3555 175.529 45.5517 175.73 45.7993C175.972 46.0975 176.135 46.4013 176.218 46.7108C176.304 47.0228 176.297 47.3264 176.197 47.6215C176.102 47.9171 175.901 48.189 175.595 48.4373L173.685 49.9888C173.548 50.0996 173.412 50.2289 173.277 50.3769C173.143 50.5273 173.04 50.6717 172.968 50.81L172.907 50.8593L172.313 50.1277C172.365 50.0267 172.45 49.9117 172.568 49.7827C172.688 49.6517 172.806 49.539 172.922 49.4446ZM174.806 48.116L174.319 48.5237L173.744 47.815C173.582 47.6153 173.42 47.4505 173.26 47.3205C173.103 47.1885 172.949 47.0951 172.8 47.0402C172.651 46.9854 172.505 46.9692 172.364 46.9916C172.225 47.0119 172.093 47.0734 171.967 47.176C171.838 47.2807 171.744 47.4052 171.685 47.5495C171.626 47.6938 171.612 47.8497 171.643 48.0173C171.679 48.1853 171.767 48.3552 171.906 48.527C172.081 48.7418 172.28 48.8944 172.505 48.9847C172.729 49.0751 172.946 49.1149 173.155 49.1042C173.367 49.0961 173.537 49.0455 173.667 48.9525L173.573 49.5259C173.453 49.5944 173.296 49.6418 173.104 49.6682C172.911 49.6945 172.702 49.6902 172.477 49.6553C172.256 49.6208 172.033 49.5457 171.809 49.4299C171.59 49.3146 171.39 49.1457 171.209 48.9234C170.984 48.6454 170.84 48.3574 170.778 48.0595C170.719 47.764 170.733 47.4843 170.82 47.2203C170.912 46.9568 171.072 46.7327 171.299 46.548C171.519 46.3695 171.747 46.2554 171.984 46.2059C172.223 46.1543 172.464 46.1642 172.706 46.2356C172.951 46.305 173.195 46.4298 173.438 46.61C173.681 46.7902 173.916 47.0206 174.144 47.3011L174.806 48.116ZM176.582 53.7567L181.607 49.675L182.18 50.3799L176.358 55.1082L175.835 54.4638L176.582 53.7567ZM175.55 50.0154L175.629 49.9508C175.943 49.6963 176.258 49.5034 176.574 49.3719C176.896 49.2409 177.206 49.1713 177.505 49.163C177.807 49.1572 178.087 49.2128 178.346 49.3299C178.609 49.4474 178.84 49.6287 179.039 49.8738C179.248 50.1316 179.385 50.3934 179.45 50.6593C179.52 50.9257 179.523 51.1956 179.46 51.4691C179.402 51.7431 179.284 52.0167 179.108 52.29C178.931 52.5633 178.704 52.8382 178.425 53.1148L178.077 53.398C177.753 53.6144 177.439 53.7796 177.133 53.8937C176.829 54.0104 176.538 54.0692 176.257 54.0703C175.979 54.0738 175.716 54.0153 175.467 53.8946C175.22 53.7718 174.991 53.5803 174.78 53.3201C174.585 53.08 174.458 52.8181 174.4 52.5344C174.343 52.2531 174.35 51.9646 174.42 51.6687C174.492 51.3753 174.623 51.0868 174.812 50.8033C175.006 50.5202 175.251 50.2576 175.55 50.0154ZM176.202 50.6558L176.122 50.7204C175.918 50.8867 175.742 51.0628 175.595 51.249C175.451 51.4376 175.346 51.6316 175.282 51.8309C175.217 52.0301 175.201 52.2298 175.233 52.4298C175.268 52.6279 175.363 52.8216 175.517 53.0111C175.706 53.2436 175.91 53.3944 176.129 53.4634C176.351 53.535 176.58 53.5506 176.815 53.5102C177.051 53.4698 177.284 53.398 177.515 53.2946L178.428 52.5527C178.542 52.4095 178.64 52.2566 178.722 52.0938C178.808 51.9315 178.865 51.7638 178.892 51.5907C178.924 51.4182 178.917 51.2415 178.871 51.0609C178.827 50.8828 178.733 50.7053 178.589 50.5284C178.433 50.3364 178.258 50.2037 178.065 50.1304C177.876 50.0575 177.676 50.0333 177.465 50.0578C177.257 50.0802 177.044 50.1437 176.827 50.2485C176.615 50.3538 176.406 50.4896 176.202 50.6558ZM179.099 54.3856L179.186 54.3148C179.482 54.0747 179.791 53.895 180.113 53.7757C180.438 53.6544 180.76 53.5986 181.078 53.6085C181.399 53.6163 181.705 53.6931 181.995 53.8389C182.288 53.9826 182.55 54.1973 182.782 54.4828C183.016 54.7709 183.173 55.073 183.254 55.3891C183.339 55.7057 183.353 56.0218 183.295 56.3375C183.241 56.6536 183.121 56.9582 182.936 57.2514C182.753 57.5425 182.514 57.8081 182.218 58.0482L182.131 58.119C181.835 58.3591 181.526 58.5389 181.204 58.6582C180.881 58.7775 180.559 58.8319 180.236 58.8216C179.917 58.8118 179.612 58.735 179.319 58.5912C179.031 58.4479 178.77 58.2323 178.536 57.9442C178.302 57.6561 178.143 57.3551 178.06 57.041C177.979 56.7248 177.966 56.4087 178.019 56.0926C178.078 55.777 178.198 55.4736 178.381 55.1825C178.564 54.8913 178.803 54.6257 179.099 54.3856ZM179.756 55.016L179.668 55.0868C179.464 55.2531 179.29 55.4341 179.147 55.6298C179.006 55.8235 178.906 56.0248 178.845 56.2337C178.786 56.4451 178.775 56.657 178.814 56.8692C178.854 57.0794 178.954 57.2817 179.112 57.4763C179.268 57.6683 179.443 57.8046 179.639 57.885C179.838 57.9659 180.047 57.9979 180.264 57.981C180.481 57.9642 180.699 57.9069 180.917 57.8092C181.14 57.712 181.354 57.5803 181.558 57.4141L181.646 57.3433C181.848 57.1791 182.018 56.9989 182.156 56.8026C182.299 56.6069 182.4 56.4033 182.459 56.1919C182.523 55.9809 182.535 55.7693 182.497 55.5571C182.461 55.3474 182.364 55.1453 182.206 54.9507C182.05 54.7587 181.872 54.6222 181.672 54.5413C181.474 54.4629 181.265 54.432 181.043 54.4483C180.826 54.4652 180.607 54.5235 180.386 54.6232C180.168 54.7209 179.958 54.8519 179.756 55.016ZM184.291 63.699L183.715 64.1669L180.782 60.5548L181.286 60.1454L184.767 60.3188C185.195 60.34 185.544 60.3415 185.814 60.3233C186.089 60.3055 186.315 60.2652 186.49 60.2024C186.67 60.14 186.832 60.0504 186.976 59.9334C187.158 59.7856 187.291 59.6144 187.376 59.4195C187.466 59.2252 187.497 59.0201 187.468 58.8042C187.439 58.5883 187.342 58.3781 187.176 58.1734C186.977 57.9283 186.763 57.7626 186.533 57.6764C186.308 57.5906 186.078 57.576 185.843 57.6326C185.608 57.6893 185.381 57.8069 185.161 57.9854L184.592 57.2842C184.903 57.0318 185.242 56.8691 185.611 56.7963C185.979 56.7234 186.348 56.7593 186.717 56.904C187.089 57.0467 187.434 57.3138 187.752 57.7055C188.035 58.0542 188.215 58.4027 188.293 58.7508C188.373 59.097 188.355 59.426 188.239 59.738C188.128 60.0505 187.925 60.3268 187.629 60.5669C187.467 60.6982 187.28 60.8038 187.068 60.8837C186.861 60.964 186.636 61.0228 186.394 61.0602C186.154 61.1001 185.903 61.1215 185.641 61.1245C185.381 61.13 185.117 61.1245 184.848 61.1082L182.044 60.9321L184.291 63.699Z" fill="white"/>
<path d="M179.695 84.9182L166.809 67.2248C166.668 67.0308 166.387 66.5228 165.967 65.7008C165.536 64.9459 165.433 64.0707 165.658 63.0754C164.67 63.0231 163.868 62.6566 163.254 61.9759C162.601 61.3234 162.203 60.9002 162.062 60.7062L148.711 42.3726L145.51 44.7038L144.662 43.5398L147.688 41.3357C147.999 41.1097 148.408 41.0194 148.916 41.065C149.386 41.1388 149.846 41.4861 150.299 42.1069L163.226 59.8585C163.65 60.4405 164.19 60.9377 164.847 61.3502C165.504 61.7627 166.209 61.7534 166.964 61.3224L167.812 62.4864C167.269 62.882 167.008 63.3392 167.03 63.858C167.04 64.4438 167.182 64.9642 167.454 65.4193C167.687 65.9026 167.86 66.2219 167.973 66.3771L180.435 83.4884C181 84.2645 181.179 84.8766 180.971 85.3249C180.724 85.8015 180.523 86.0963 180.368 86.2094L177.341 88.4134L176.493 87.2494L179.695 84.9182Z" fill="#C24332"/>
<path d="M77.4292 143.004H99.3172C99.5572 143.004 100.133 143.076 101.045 143.22C101.909 143.316 102.677 143.748 103.349 144.516C103.973 143.748 104.741 143.316 105.653 143.22C106.565 143.076 107.141 143.004 107.381 143.004H130.061V139.044H131.501V142.788C131.501 143.172 131.333 143.556 130.997 143.94C130.661 144.276 130.109 144.444 129.341 144.444H107.381C106.661 144.444 105.941 144.588 105.221 144.876C104.501 145.164 104.093 145.74 103.997 146.604H102.557C102.557 145.932 102.341 145.452 101.909 145.164C101.429 144.828 100.925 144.636 100.397 144.588C99.8692 144.492 99.5092 144.444 99.3172 144.444H78.1492C77.1892 144.444 76.5892 144.228 76.3492 143.796C76.1092 143.316 75.9892 142.98 75.9892 142.788V139.044H77.4292V143.004Z" fill="#C24332"/>
<path d="M95.1755 7.47093C97.9757 3.73615 103.578 3.73653 106.377 7.47169L193.132 123.213C196.591 127.828 193.298 134.412 187.531 134.412H13.9974C8.22953 134.412 4.93671 127.827 8.39671 123.213L95.1755 7.47093Z" fill="url(#paint0_linear_122_52)"/>
<path d="M107.302 94.1243L105.419 99.3079H104.649L106.817 93.6204H107.314L107.302 94.1243ZM108.88 99.3079L106.993 94.1243L106.981 93.6204H107.478L109.653 99.3079H108.88ZM108.782 97.2024V97.8196H105.587V97.2024H108.782ZM111.091 93.3079V99.3079H110.364V93.3079H111.091ZM114.021 95.0813V95.636H111.735V95.0813H114.021ZM112.509 94.054H113.231V98.261C113.231 98.4042 113.254 98.5123 113.298 98.5852C113.342 98.6581 113.399 98.7063 113.47 98.7297C113.54 98.7532 113.616 98.7649 113.696 98.7649C113.756 98.7649 113.819 98.7597 113.884 98.7493C113.952 98.7362 114.002 98.7258 114.036 98.718L114.04 99.3079C113.983 99.3261 113.907 99.343 113.814 99.3586C113.722 99.3769 113.612 99.386 113.481 99.386C113.304 99.386 113.142 99.3508 112.993 99.2805C112.845 99.2102 112.726 99.093 112.638 98.929C112.552 98.7623 112.509 98.5383 112.509 98.2571V94.054ZM117.454 98.3313V95.0813H118.181V99.3079H117.489L117.454 98.3313ZM117.591 97.4407L117.892 97.4329C117.892 97.7141 117.862 97.9745 117.802 98.2141C117.745 98.4511 117.651 98.6568 117.521 98.8313C117.39 99.0058 117.22 99.1425 117.009 99.2415C116.798 99.3378 116.541 99.386 116.239 99.386C116.034 99.386 115.845 99.356 115.673 99.2961C115.504 99.2362 115.358 99.1438 115.235 99.0188C115.113 98.8938 115.018 98.731 114.95 98.5305C114.885 98.33 114.853 98.0891 114.853 97.8079V95.0813H115.575V97.8157C115.575 98.0058 115.596 98.1633 115.638 98.2883C115.682 98.4107 115.741 98.5084 115.814 98.5813C115.889 98.6516 115.972 98.7011 116.064 98.7297C116.157 98.7584 116.254 98.7727 116.353 98.7727C116.66 98.7727 116.903 98.7141 117.083 98.5969C117.263 98.4771 117.392 98.317 117.47 98.1165C117.551 97.9133 117.591 97.6881 117.591 97.4407ZM120.005 95.7454V99.3079H119.282V95.0813H119.985L120.005 95.7454ZM121.325 95.0579L121.321 95.7297C121.261 95.7167 121.204 95.7089 121.149 95.7063C121.097 95.7011 121.037 95.6985 120.97 95.6985C120.803 95.6985 120.656 95.7245 120.528 95.7766C120.401 95.8287 120.293 95.9016 120.204 95.9954C120.116 96.0891 120.045 96.2011 119.993 96.3313C119.944 96.4589 119.911 96.5995 119.896 96.7532L119.692 96.8704C119.692 96.6152 119.717 96.3756 119.767 96.1516C119.819 95.9277 119.898 95.7297 120.005 95.5579C120.112 95.3834 120.247 95.248 120.411 95.1516C120.578 95.0527 120.776 95.0032 121.005 95.0032C121.057 95.0032 121.117 95.0097 121.185 95.0227C121.252 95.0331 121.299 95.0448 121.325 95.0579ZM124.329 98.5852V96.4094C124.329 96.2428 124.295 96.0982 124.228 95.9758C124.162 95.8508 124.064 95.7545 123.931 95.6868C123.798 95.6191 123.634 95.5852 123.439 95.5852C123.256 95.5852 123.096 95.6165 122.958 95.679C122.823 95.7415 122.716 95.8235 122.638 95.925C122.562 96.0266 122.524 96.136 122.524 96.2532H121.802C121.802 96.1021 121.841 95.9524 121.919 95.804C121.997 95.6555 122.109 95.5214 122.255 95.4016C122.403 95.2792 122.58 95.1829 122.786 95.1125C122.995 95.0396 123.226 95.0032 123.481 95.0032C123.789 95.0032 124.06 95.0553 124.294 95.1594C124.531 95.2636 124.716 95.4211 124.849 95.6321C124.984 95.8404 125.052 96.1021 125.052 96.4172V98.386C125.052 98.5266 125.064 98.6764 125.087 98.8352C125.113 98.9941 125.151 99.1308 125.2 99.2454V99.3079H124.446C124.41 99.2245 124.381 99.1139 124.36 98.9758C124.34 98.8352 124.329 98.705 124.329 98.5852ZM124.454 96.7454L124.462 97.2532H123.731C123.526 97.2532 123.342 97.2701 123.181 97.304C123.019 97.3352 122.884 97.3834 122.774 97.4485C122.665 97.5136 122.582 97.5956 122.524 97.6946C122.467 97.7909 122.439 97.9042 122.439 98.0344C122.439 98.1672 122.468 98.2883 122.528 98.3977C122.588 98.5071 122.678 98.5943 122.798 98.6594C122.92 98.7219 123.07 98.7532 123.247 98.7532C123.468 98.7532 123.664 98.7063 123.833 98.6125C124.002 98.5188 124.136 98.4042 124.235 98.2688C124.337 98.1334 124.392 98.0019 124.399 97.8743L124.708 98.2219C124.69 98.3313 124.64 98.4524 124.56 98.5852C124.479 98.718 124.371 98.8456 124.235 98.968C124.103 99.0878 123.944 99.1881 123.759 99.2688C123.577 99.3469 123.371 99.386 123.142 99.386C122.855 99.386 122.604 99.33 122.388 99.218C122.174 99.106 122.008 98.9563 121.888 98.7688C121.771 98.5787 121.712 98.3665 121.712 98.1321C121.712 97.9055 121.756 97.7063 121.845 97.5344C121.933 97.3599 122.061 97.2154 122.228 97.1008C122.394 96.9836 122.595 96.8951 122.829 96.8352C123.064 96.7753 123.325 96.7454 123.614 96.7454H124.454Z" fill="white"/>
<line x1="100.769" y1="6" x2="100.769" y2="131" stroke="white" stroke-linecap="round" stroke-dasharray="2 2"/>
<defs>
<linearGradient id="paint0_linear_122_52" x1="108.429" y1="11.7044" x2="73.3609" y2="103.088" gradientUnits="userSpaceOnUse">
<stop stop-color="#C24332"/>
<stop offset="1" stop-color="#F34B35"/>
</linearGradient>
</defs>
</svg>
