<svg width="184" height="178" viewBox="0 0 184 178" fill="none" xmlns="http://www.w3.org/2000/svg">
<path d="M87.2772 16.6943C89.4108 13.1191 94.5892 13.1191 96.7228 16.6943L158.784 120.681C160.972 124.347 158.33 129 154.061 129H29.9393C25.67 129 23.0285 124.347 25.2165 120.681L87.2772 16.6943Z" stroke="#C24332" stroke-width="9"/>
<path d="M15.1384 71.4771L21.6097 75.2681L21.1507 76.0517L14.6793 72.2607L15.1384 71.4771ZM23.1379 70.8722L20.7912 69.4975C20.6115 69.3922 20.4342 69.3374 20.2594 69.3331C20.0835 69.3243 19.917 69.3702 19.7601 69.4706C19.6031 69.5711 19.4629 69.7266 19.3395 69.9373C19.2244 70.1339 19.1569 70.3264 19.1371 70.5148C19.1189 70.7003 19.1399 70.8673 19.2001 71.0157C19.262 71.1613 19.3561 71.2712 19.4825 71.3452L19.0259 72.1246C18.863 72.0292 18.7261 71.8925 18.6154 71.7144C18.5047 71.5364 18.4308 71.3309 18.3937 71.0979C18.3555 70.8605 18.3634 70.6086 18.4176 70.3423C18.4706 70.0715 18.5777 69.7985 18.7389 69.5232C18.9331 69.1918 19.1604 68.9326 19.4208 68.7456C19.6829 68.5558 19.9697 68.456 20.2811 68.446C20.5913 68.4316 20.9164 68.5239 21.2563 68.723L23.3797 69.9669C23.5313 70.0557 23.7003 70.1377 23.8864 70.2128C24.0742 70.2851 24.2455 70.3307 24.4003 70.3498L24.4678 70.3893L23.9914 71.2024C23.8785 71.1891 23.741 71.15 23.579 71.0853C23.4142 71.0189 23.2671 70.9479 23.1379 70.8722ZM21.2325 69.5749L21.7852 69.8873L21.3237 70.6752C21.1937 70.8971 21.0959 71.1058 21.0304 71.3013C20.9621 71.4952 20.9285 71.6717 20.9296 71.8308C20.9307 71.9899 20.9666 72.1316 21.0371 72.2559C21.1048 72.3786 21.2089 72.4811 21.3493 72.5634C21.4926 72.6473 21.6421 72.6915 21.7979 72.696C21.9537 72.7005 22.1046 72.6587 22.2505 72.5706C22.3953 72.4781 22.5236 72.3364 22.6355 72.1454C22.7753 71.9066 22.8482 71.6663 22.854 71.4245C22.8598 71.1827 22.821 70.9657 22.7374 70.7734C22.6556 70.5783 22.5483 70.4362 22.4156 70.3472L22.9855 70.234C23.092 70.3228 23.1913 70.4526 23.2836 70.6236C23.3758 70.7946 23.4451 70.9918 23.4916 71.2152C23.5369 71.4341 23.5447 71.6688 23.5149 71.9192C23.484 72.1652 23.3961 72.4118 23.2513 72.6589C23.0703 72.9679 22.8512 73.2036 22.5938 73.366C22.3381 73.5255 22.0713 73.6107 21.7934 73.6214C21.5143 73.6277 21.2484 73.5568 20.9956 73.4087C20.7512 73.2655 20.5643 73.0919 20.4349 72.8878C20.3027 72.6821 20.2274 72.4531 20.2091 72.201C20.188 71.9472 20.2192 71.675 20.3027 71.3843C20.3862 71.0937 20.5193 70.7925 20.7019 70.4807L21.2325 69.5749ZM25.8907 65.9317L20.304 62.659L20.7631 61.8754L27.2345 65.6664L26.8149 66.3826L25.8907 65.9317ZM22.7499 68.2115L22.6614 68.1597C22.3131 67.9557 22.0218 67.7284 21.7875 67.478C21.552 67.2231 21.3778 66.9569 21.2649 66.6795C21.1537 66.3993 21.1075 66.1176 21.1263 65.8343C21.1439 65.5466 21.2325 65.2666 21.3921 64.9941C21.56 64.7076 21.7569 64.4873 21.9831 64.333C22.2081 64.1743 22.4597 64.0765 22.7379 64.0395C23.015 63.9981 23.3124 64.012 23.6302 64.0812C23.9481 64.1505 24.2854 64.267 24.6422 64.4307L25.0298 64.6578C25.3459 64.8845 25.6111 65.1209 25.8253 65.3671C26.0411 65.6105 26.1987 65.8631 26.298 66.1251C26.399 66.3842 26.4367 66.6515 26.4111 66.927C26.3827 67.2008 26.2838 67.4824 26.1143 67.7717C25.958 68.0385 25.7573 68.2492 25.5121 68.4036C25.2686 68.5552 24.9961 68.6502 24.6944 68.6886C24.3944 68.7241 24.0785 68.7031 23.7466 68.6256C23.4136 68.5437 23.0813 68.4057 22.7499 68.2115ZM23.1205 67.3761L23.209 67.4279C23.4365 67.5612 23.6631 67.6637 23.8889 67.7356C24.1162 67.8047 24.3346 67.8345 24.5438 67.8251C24.7531 67.8156 24.9457 67.7605 25.1216 67.6599C25.2947 67.5576 25.443 67.4011 25.5664 67.1904C25.7178 66.932 25.7872 66.6879 25.7748 66.458C25.7639 66.2253 25.6983 66.0057 25.5777 65.7993C25.4572 65.5929 25.3081 65.3999 25.1303 65.2203L24.115 64.6255C23.9407 64.5687 23.7631 64.5307 23.582 64.5114C23.3997 64.4876 23.2228 64.4934 23.0512 64.5287C22.8785 64.5595 22.7156 64.6282 22.5627 64.7348C22.4113 64.8385 22.2781 64.9887 22.1629 65.1853C22.0379 65.3988 21.975 65.6091 21.9744 65.8162C21.9726 66.0189 22.0202 66.2146 22.1171 66.4034C22.2112 66.5906 22.3453 66.7673 22.5196 66.9335C22.6927 67.0953 22.893 67.2428 23.1205 67.3761ZM25.5956 63.3538L25.4987 63.297C25.1701 63.1045 24.8933 62.8782 24.6684 62.6182C24.4406 62.3565 24.2755 62.0749 24.1729 61.7734C24.0676 61.4702 24.0322 61.1571 24.0668 60.8341C24.0985 60.5094 24.2074 60.1883 24.3933 59.8709C24.5809 59.5507 24.8085 59.2974 25.0762 59.1109C25.3427 58.92 25.634 58.7963 25.95 58.74C26.2648 58.6792 26.592 58.6841 26.9316 58.7548C27.2684 58.8238 27.6011 58.9546 27.9298 59.1471L28.0267 59.2039C28.3553 59.3964 28.6321 59.6227 28.857 59.8827C29.0819 60.1427 29.2462 60.4257 29.35 60.7317C29.4525 61.0332 29.4879 61.3463 29.4561 61.671C29.4232 61.9913 29.3129 62.3115 29.1254 62.6317C28.9378 62.9519 28.7116 63.2061 28.4467 63.3942C28.179 63.5807 27.8877 63.7043 27.5729 63.7652C27.257 63.8215 26.9306 63.8152 26.5938 63.7461C26.2569 63.6771 25.9242 63.5463 25.5956 63.3538ZM25.9553 62.5176L26.0522 62.5744C26.2797 62.7076 26.5102 62.8068 26.7437 62.8719C26.9744 62.9354 27.1982 62.959 27.4152 62.9428C27.6339 62.9237 27.8359 62.8591 28.0212 62.7488C28.2037 62.6369 28.3583 62.4728 28.485 62.2566C28.61 62.0431 28.6759 61.8308 28.6826 61.6197C28.6882 61.4041 28.645 61.1977 28.553 61.0005C28.4611 60.8033 28.331 60.6196 28.1628 60.4494C27.9935 60.2747 27.7951 60.1208 27.5676 59.9875L27.4707 59.9307C27.246 59.7991 27.0175 59.703 26.7852 59.6423C26.5517 59.5772 26.3256 59.5542 26.1069 59.5732C25.8871 59.5878 25.6846 59.6503 25.4992 59.7605C25.3156 59.868 25.1604 60.0298 25.0337 60.2461C24.9087 60.4596 24.8434 60.6741 24.8378 60.8896C24.8339 61.1024 24.8785 61.3096 24.9716 61.5113C25.0636 61.7085 25.195 61.893 25.366 62.0649C25.5342 62.2351 25.7306 62.386 25.9553 62.5176ZM27.365 51.3012L33.533 54.9145L33.0764 55.6939L27.8816 52.6507L27.534 54.5579L26.8304 54.1457L27.2934 51.4234L27.365 51.3012Z" fill="white"/>
<path d="M151.893 54.2004L145.432 58.0101L144.971 57.2278L151.431 53.4181L151.893 54.2004ZM148.53 61.4838L150.872 60.1023C151.052 59.9965 151.186 59.8682 151.275 59.7176C151.368 59.5682 151.409 59.4004 151.397 59.2144C151.386 59.0284 151.318 58.8303 151.194 58.62C151.078 58.4237 150.943 58.2711 150.788 58.1622C150.635 58.0561 150.479 57.9932 150.32 57.9736C150.163 57.9567 150.021 57.9855 149.895 58.0599L149.436 57.2818C149.598 57.1859 149.784 57.1329 149.994 57.1228C150.203 57.1126 150.419 57.1481 150.64 57.229C150.866 57.3111 151.083 57.4406 151.289 57.6175C151.5 57.7955 151.686 58.0219 151.848 58.2967C152.043 58.6276 152.159 58.9522 152.196 59.2707C152.234 59.592 152.182 59.8912 152.039 60.1681C151.901 60.4462 151.662 60.6853 151.323 60.8854L149.203 62.1354C149.052 62.2247 148.898 62.3324 148.742 62.4585C148.587 62.5874 148.464 62.7149 148.372 62.8409L148.305 62.8806L147.826 62.0688C147.892 61.9767 147.993 61.8756 148.129 61.7655C148.267 61.6538 148.401 61.5599 148.53 61.4838ZM150.59 60.4502L150.048 60.781L149.584 59.9945C149.454 59.773 149.319 59.5861 149.18 59.4337C149.044 59.2797 148.906 59.1645 148.766 59.0881C148.627 59.0117 148.486 58.974 148.343 58.9752C148.203 58.9747 148.062 59.0157 147.922 59.0984C147.779 59.1827 147.668 59.2919 147.588 59.4258C147.508 59.5598 147.471 59.7119 147.477 59.8822C147.488 60.0537 147.549 60.2347 147.662 60.4254C147.802 60.6638 147.977 60.8443 148.185 60.967C148.394 61.0898 148.602 61.1614 148.811 61.182C149.021 61.2053 149.197 61.1807 149.34 61.1081L149.161 61.6611C149.032 61.7109 148.87 61.7346 148.676 61.732C148.482 61.7294 148.276 61.694 148.058 61.6259C147.845 61.559 147.636 61.4516 147.431 61.3038C147.232 61.1571 147.059 60.9604 146.913 60.7137C146.731 60.4052 146.632 60.0991 146.615 59.7953C146.6 59.4942 146.656 59.2197 146.782 58.9717C146.912 58.7248 147.103 58.5269 147.356 58.3781C147.6 58.2343 147.842 58.1554 148.084 58.1416C148.328 58.1262 148.564 58.1718 148.793 58.2785C149.025 58.3835 149.248 58.5432 149.461 58.7576C149.675 58.9719 149.873 59.2347 150.057 59.5459L150.59 60.4502ZM151.507 66.2923L157.084 63.0034L157.545 63.7857L151.085 67.5955L150.663 66.8805L151.507 66.2923ZM151.043 62.4392L151.131 62.3871C151.479 62.182 151.819 62.0381 152.152 61.9552C152.489 61.8734 152.807 61.8507 153.104 61.887C153.403 61.9262 153.671 62.0228 153.91 62.1771C154.153 62.3324 154.354 62.5461 154.515 62.8181C154.683 63.1041 154.78 63.3834 154.805 63.656C154.834 63.9298 154.797 64.1972 154.694 64.4583C154.595 64.7205 154.438 64.9736 154.223 65.2176C154.008 65.4616 153.742 65.6996 153.426 65.9317L153.039 66.1599C152.687 66.3258 152.351 66.4425 152.032 66.5098C151.714 66.58 151.417 66.5948 151.14 66.5541C150.864 66.5163 150.612 66.4192 150.384 66.2628C150.159 66.1048 149.961 65.8814 149.79 65.5926C149.633 65.3262 149.547 65.0483 149.531 64.759C149.517 64.4725 149.567 64.1882 149.68 63.906C149.795 63.6266 149.967 63.3608 150.196 63.1085C150.43 62.8574 150.712 62.6343 151.043 62.4392ZM151.593 63.1694L151.504 63.2215C151.277 63.3554 151.077 63.5035 150.905 63.6658C150.734 63.8308 150.601 64.0071 150.508 64.1945C150.414 64.3819 150.369 64.577 150.371 64.7797C150.376 64.9807 150.441 65.1863 150.565 65.3966C150.717 65.6546 150.897 65.8341 151.103 65.935C151.312 66.0388 151.536 66.0882 151.775 66.0833C152.014 66.0784 152.255 66.042 152.498 65.9741L153.512 65.3763C153.646 65.2517 153.766 65.115 153.871 64.9662C153.98 64.8185 154.061 64.6612 154.114 64.4941C154.171 64.3281 154.19 64.1524 154.172 63.9669C154.155 63.7843 154.088 63.5948 153.972 63.3985C153.847 63.1854 153.694 63.0282 153.513 62.9269C153.337 62.8267 153.143 62.7731 152.931 62.7659C152.721 62.757 152.502 62.7883 152.272 62.8597C152.046 62.9322 151.82 63.0354 151.593 63.1694ZM153.903 67.2886L153.999 67.2316C154.328 67.0381 154.66 66.9064 154.996 66.8363C155.336 66.7647 155.662 66.7574 155.976 66.8145C156.292 66.8699 156.582 66.9913 156.848 67.1787C157.116 67.3644 157.344 67.6157 157.531 67.9325C157.719 68.2522 157.83 68.5743 157.862 68.8989C157.9 69.2247 157.866 69.5393 157.761 69.8428C157.661 70.1474 157.498 70.4309 157.271 70.6932C157.047 70.9539 156.771 71.181 156.443 71.3744L156.346 71.4315C156.018 71.6249 155.685 71.7567 155.349 71.8267C155.012 71.8967 154.685 71.9026 154.367 71.8444C154.054 71.7873 153.763 71.6659 153.495 71.4802C153.231 71.2956 153.005 71.0435 152.816 70.7238C152.628 70.4042 152.516 70.0829 152.48 69.7599C152.448 69.4353 152.481 69.1207 152.581 68.8161C152.686 68.5126 152.85 68.2305 153.074 67.9698C153.299 67.7092 153.575 67.4821 153.903 67.2886ZM154.458 68.0097L154.362 68.0667C154.134 68.2007 153.936 68.3538 153.765 68.5261C153.598 68.6968 153.468 68.8809 153.377 69.0784C153.287 69.2787 153.245 69.4866 153.251 69.7021C153.26 69.916 153.328 70.1309 153.456 70.3468C153.581 70.5599 153.735 70.7208 153.916 70.8293C154.102 70.939 154.303 71.0017 154.52 71.0173C154.737 71.0329 154.961 71.0087 155.191 70.9445C155.426 70.8816 155.657 70.7831 155.884 70.6492L155.981 70.5921C156.206 70.4598 156.401 70.307 156.567 70.1335C156.737 69.9612 156.867 69.7748 156.957 69.5745C157.051 69.3754 157.095 69.168 157.089 68.9525C157.084 68.7398 157.019 68.5254 156.891 68.3095C156.766 68.0964 156.61 67.935 156.424 67.8253C156.24 67.7184 156.038 67.6566 155.816 67.6398C155.599 67.6242 155.374 67.6493 155.141 67.7151C154.91 67.7792 154.683 67.8774 154.458 68.0097ZM158.912 79.4073L158.273 79.7843L155.909 75.776L156.469 75.4462L159.885 76.1354C160.305 76.2201 160.65 76.2735 160.92 76.2957C161.195 76.319 161.424 76.3126 161.606 76.2766C161.794 76.2417 161.967 76.1772 162.127 76.0829C162.329 75.9639 162.486 75.8143 162.6 75.6343C162.717 75.4554 162.778 75.2571 162.782 75.0394C162.785 74.8217 162.72 74.5993 162.586 74.3722C162.426 74.1002 162.239 73.9045 162.025 73.7851C161.815 73.6668 161.59 73.6182 161.349 73.6393C161.109 73.6603 160.866 73.7428 160.622 73.8866L160.163 73.1085C160.508 72.9052 160.868 72.7948 161.244 72.7776C161.619 72.7604 161.978 72.8507 162.322 73.0487C162.668 73.2451 162.97 73.5606 163.226 73.9952C163.454 74.3821 163.58 74.7535 163.605 75.1093C163.633 75.4635 163.566 75.7862 163.405 76.0775C163.249 76.37 163.007 76.613 162.679 76.8064C162.499 76.9123 162.299 76.9889 162.077 77.0363C161.86 77.0849 161.629 77.1097 161.384 77.1106C161.141 77.1144 160.889 77.0982 160.63 77.0622C160.372 77.029 160.112 76.9843 159.848 76.9281L157.102 76.337L158.912 79.4073Z" fill="white"/>
<path d="M81.6836 147.5H82.5918V153.975L82.5137 155H81.6836V147.5ZM86.1611 152.314V152.417C86.1611 152.801 86.1156 153.158 86.0244 153.486C85.9333 153.812 85.7998 154.095 85.624 154.336C85.4482 154.577 85.2334 154.764 84.9795 154.897C84.7256 155.031 84.4342 155.098 84.1055 155.098C83.7702 155.098 83.4756 155.041 83.2217 154.927C82.971 154.81 82.7594 154.642 82.5869 154.424C82.4144 154.206 82.276 153.942 82.1719 153.633C82.071 153.324 82.001 152.975 81.9619 152.588V152.139C82.001 151.748 82.071 151.398 82.1719 151.089C82.276 150.78 82.4144 150.516 82.5869 150.298C82.7594 150.076 82.971 149.909 83.2217 149.795C83.4723 149.678 83.7637 149.619 84.0957 149.619C84.4277 149.619 84.7223 149.684 84.9795 149.814C85.2367 149.941 85.4515 150.124 85.624 150.361C85.7998 150.599 85.9333 150.884 86.0244 151.216C86.1156 151.545 86.1611 151.911 86.1611 152.314ZM85.2529 152.417V152.314C85.2529 152.051 85.2285 151.803 85.1797 151.572C85.1309 151.338 85.0527 151.133 84.9453 150.957C84.8379 150.778 84.6963 150.638 84.5205 150.537C84.3447 150.433 84.1283 150.381 83.8711 150.381C83.6432 150.381 83.4447 150.42 83.2754 150.498C83.1094 150.576 82.9678 150.682 82.8506 150.815C82.7334 150.946 82.6374 151.095 82.5625 151.265C82.4909 151.431 82.4372 151.603 82.4014 151.782V152.959C82.4535 153.187 82.5381 153.407 82.6553 153.618C82.7757 153.826 82.9352 153.997 83.1338 154.131C83.3356 154.264 83.5846 154.331 83.8809 154.331C84.125 154.331 84.3333 154.282 84.5059 154.185C84.6816 154.084 84.8232 153.945 84.9307 153.77C85.0413 153.594 85.1227 153.39 85.1748 153.159C85.2269 152.928 85.2529 152.681 85.2529 152.417ZM90.4189 154.097V151.377C90.4189 151.169 90.3766 150.988 90.292 150.835C90.2106 150.679 90.0869 150.558 89.9209 150.474C89.7549 150.389 89.5498 150.347 89.3057 150.347C89.0778 150.347 88.8776 150.386 88.7051 150.464C88.5358 150.542 88.4023 150.645 88.3047 150.771C88.2103 150.898 88.1631 151.035 88.1631 151.182H87.2598C87.2598 150.993 87.3086 150.806 87.4062 150.62C87.5039 150.435 87.6439 150.267 87.8262 150.117C88.0117 149.964 88.2331 149.844 88.4902 149.756C88.7507 149.665 89.0404 149.619 89.3594 149.619C89.7435 149.619 90.082 149.684 90.375 149.814C90.6712 149.945 90.9023 150.142 91.0684 150.405C91.2376 150.666 91.3223 150.993 91.3223 151.387V153.848C91.3223 154.023 91.3369 154.211 91.3662 154.409C91.3988 154.608 91.446 154.779 91.5078 154.922V155H90.5654C90.5199 154.896 90.484 154.757 90.458 154.585C90.432 154.409 90.4189 154.246 90.4189 154.097ZM90.5752 151.797L90.585 152.432H89.6719C89.4147 152.432 89.1852 152.453 88.9834 152.495C88.7816 152.534 88.6123 152.594 88.4756 152.676C88.3389 152.757 88.2347 152.86 88.1631 152.983C88.0915 153.104 88.0557 153.245 88.0557 153.408C88.0557 153.574 88.0931 153.726 88.168 153.862C88.2428 153.999 88.3551 154.108 88.5049 154.189C88.6579 154.268 88.8451 154.307 89.0664 154.307C89.3431 154.307 89.5872 154.248 89.7988 154.131C90.0104 154.014 90.1781 153.87 90.3018 153.701C90.4287 153.532 90.4971 153.368 90.5068 153.208L90.8926 153.643C90.8698 153.779 90.8079 153.931 90.707 154.097C90.6061 154.263 90.471 154.422 90.3018 154.575C90.1357 154.725 89.9372 154.85 89.7061 154.951C89.4782 155.049 89.221 155.098 88.9346 155.098C88.5765 155.098 88.2624 155.028 87.9922 154.888C87.7253 154.748 87.5169 154.561 87.3672 154.326C87.2207 154.089 87.1475 153.823 87.1475 153.53C87.1475 153.247 87.2028 152.998 87.3135 152.783C87.4242 152.565 87.5837 152.384 87.792 152.241C88.0003 152.095 88.251 151.984 88.5439 151.909C88.8369 151.834 89.1641 151.797 89.5254 151.797H90.5752ZM95.8193 153.599C95.8193 153.468 95.79 153.348 95.7314 153.237C95.6761 153.123 95.5605 153.021 95.3848 152.93C95.2122 152.835 94.9518 152.754 94.6035 152.686C94.3105 152.624 94.0452 152.55 93.8076 152.466C93.5732 152.381 93.373 152.279 93.207 152.158C93.0443 152.038 92.9189 151.896 92.8311 151.733C92.7432 151.571 92.6992 151.38 92.6992 151.162C92.6992 150.954 92.7448 150.757 92.8359 150.571C92.9303 150.386 93.0622 150.221 93.2314 150.078C93.404 149.935 93.6107 149.823 93.8516 149.741C94.0924 149.66 94.361 149.619 94.6572 149.619C95.0804 149.619 95.4417 149.694 95.7412 149.844C96.0407 149.993 96.2702 150.194 96.4297 150.444C96.5892 150.692 96.6689 150.967 96.6689 151.27H95.7656C95.7656 151.123 95.7217 150.981 95.6338 150.845C95.5492 150.705 95.4238 150.589 95.2578 150.498C95.0951 150.407 94.8949 150.361 94.6572 150.361C94.4066 150.361 94.2031 150.4 94.0469 150.479C93.8939 150.553 93.7816 150.649 93.71 150.767C93.6416 150.884 93.6074 151.007 93.6074 151.138C93.6074 151.235 93.6237 151.323 93.6562 151.401C93.6921 151.476 93.7539 151.546 93.8418 151.611C93.9297 151.673 94.0534 151.732 94.2129 151.787C94.3724 151.842 94.5758 151.898 94.8232 151.953C95.2562 152.051 95.6126 152.168 95.8926 152.305C96.1725 152.441 96.3809 152.609 96.5176 152.808C96.6543 153.006 96.7227 153.247 96.7227 153.53C96.7227 153.761 96.6738 153.973 96.5762 154.165C96.4818 154.357 96.3434 154.523 96.1611 154.663C95.9821 154.8 95.7673 154.907 95.5166 154.985C95.2692 155.06 94.9909 155.098 94.6816 155.098C94.2161 155.098 93.8223 155.015 93.5 154.849C93.1777 154.683 92.9336 154.468 92.7676 154.204C92.6016 153.94 92.5186 153.662 92.5186 153.369H93.4268C93.4398 153.617 93.5114 153.813 93.6416 153.96C93.7718 154.103 93.9313 154.206 94.1201 154.268C94.3089 154.326 94.4961 154.355 94.6816 154.355C94.929 154.355 95.1357 154.323 95.3018 154.258C95.471 154.193 95.5996 154.103 95.6875 153.989C95.7754 153.875 95.8193 153.745 95.8193 153.599ZM100.102 155.098C99.7337 155.098 99.4001 155.036 99.1006 154.912C98.8044 154.785 98.5488 154.608 98.334 154.38C98.1224 154.152 97.9596 153.882 97.8457 153.569C97.7318 153.257 97.6748 152.915 97.6748 152.544V152.339C97.6748 151.909 97.7383 151.527 97.8652 151.191C97.9922 150.853 98.1647 150.566 98.3828 150.332C98.6009 150.098 98.8483 149.92 99.125 149.8C99.4017 149.679 99.6882 149.619 99.9844 149.619C100.362 149.619 100.688 149.684 100.961 149.814C101.238 149.945 101.464 150.127 101.64 150.361C101.815 150.592 101.946 150.866 102.03 151.182C102.115 151.494 102.157 151.836 102.157 152.207V152.612H98.2119V151.875H101.254V151.807C101.241 151.572 101.192 151.344 101.107 151.123C101.026 150.902 100.896 150.719 100.717 150.576C100.538 150.433 100.294 150.361 99.9844 150.361C99.7793 150.361 99.5905 150.405 99.418 150.493C99.2454 150.578 99.0973 150.705 98.9736 150.874C98.8499 151.043 98.7539 151.25 98.6855 151.494C98.6172 151.738 98.583 152.02 98.583 152.339V152.544C98.583 152.795 98.6172 153.031 98.6855 153.252C98.7572 153.47 98.8597 153.662 98.9932 153.828C99.1299 153.994 99.2943 154.124 99.4863 154.219C99.6816 154.313 99.903 154.36 100.15 154.36C100.469 154.36 100.74 154.295 100.961 154.165C101.182 154.035 101.376 153.861 101.542 153.643L102.089 154.077C101.975 154.25 101.83 154.414 101.654 154.57C101.479 154.727 101.262 154.854 101.005 154.951C100.751 155.049 100.45 155.098 100.102 155.098Z" fill="white"/>
<path d="M101.043 91.2773V89.1016C101.043 88.9349 101.009 88.7904 100.941 88.668C100.876 88.543 100.777 88.4466 100.645 88.3789C100.512 88.3112 100.348 88.2773 100.152 88.2773C99.9701 88.2773 99.8099 88.3086 99.6719 88.3711C99.5365 88.4336 99.4297 88.5156 99.3516 88.6172C99.276 88.7188 99.2383 88.8281 99.2383 88.9453H98.5156C98.5156 88.7943 98.5547 88.6445 98.6328 88.4961C98.7109 88.3477 98.8229 88.2135 98.9688 88.0938C99.1172 87.9714 99.2943 87.875 99.5 87.8047C99.7083 87.7318 99.9401 87.6953 100.195 87.6953C100.503 87.6953 100.773 87.7474 101.008 87.8516C101.245 87.9557 101.43 88.1133 101.562 88.3242C101.698 88.5326 101.766 88.7943 101.766 89.1094V91.0781C101.766 91.2188 101.777 91.3685 101.801 91.5273C101.827 91.6862 101.865 91.8229 101.914 91.9375V92H101.16C101.124 91.9167 101.095 91.806 101.074 91.668C101.053 91.5273 101.043 91.3971 101.043 91.2773ZM101.168 89.4375L101.176 89.9453H100.445C100.24 89.9453 100.056 89.9622 99.8945 89.9961C99.7331 90.0273 99.5977 90.0755 99.4883 90.1406C99.3789 90.2057 99.2956 90.2878 99.2383 90.3867C99.181 90.4831 99.1523 90.5964 99.1523 90.7266C99.1523 90.8594 99.1823 90.9805 99.2422 91.0898C99.3021 91.1992 99.3919 91.2865 99.5117 91.3516C99.6341 91.4141 99.7839 91.4453 99.9609 91.4453C100.182 91.4453 100.378 91.3984 100.547 91.3047C100.716 91.2109 100.85 91.0964 100.949 90.9609C101.051 90.8255 101.105 90.694 101.113 90.5664L101.422 90.9141C101.404 91.0234 101.354 91.1445 101.273 91.2773C101.193 91.4102 101.085 91.5378 100.949 91.6602C100.816 91.7799 100.658 91.8802 100.473 91.9609C100.29 92.0391 100.085 92.0781 99.8555 92.0781C99.569 92.0781 99.3177 92.0221 99.1016 91.9102C98.888 91.7982 98.7214 91.6484 98.6016 91.4609C98.4844 91.2708 98.4258 91.0586 98.4258 90.8242C98.4258 90.5977 98.4701 90.3984 98.5586 90.2266C98.6471 90.0521 98.7747 89.9076 98.9414 89.793C99.1081 89.6758 99.3086 89.5872 99.543 89.5273C99.7773 89.4674 100.039 89.4375 100.328 89.4375H101.168ZM103.688 86V92H102.961V86H103.688ZM106.617 87.7734V88.3281H104.332V87.7734H106.617ZM105.105 86.7461H105.828V90.9531C105.828 91.0964 105.85 91.2044 105.895 91.2773C105.939 91.3503 105.996 91.3984 106.066 91.4219C106.137 91.4453 106.212 91.457 106.293 91.457C106.353 91.457 106.415 91.4518 106.48 91.4414C106.548 91.4284 106.599 91.418 106.633 91.4102L106.637 92C106.579 92.0182 106.504 92.0352 106.41 92.0508C106.319 92.069 106.208 92.0781 106.078 92.0781C105.901 92.0781 105.738 92.043 105.59 91.9727C105.441 91.9023 105.323 91.7852 105.234 91.6211C105.148 91.4544 105.105 91.2305 105.105 90.9492V86.7461ZM110.051 91.0234V87.7734H110.777V92H110.086L110.051 91.0234ZM110.188 90.1328L110.488 90.125C110.488 90.4062 110.458 90.6667 110.398 90.9062C110.341 91.1432 110.247 91.349 110.117 91.5234C109.987 91.6979 109.816 91.8346 109.605 91.9336C109.395 92.0299 109.138 92.0781 108.836 92.0781C108.63 92.0781 108.441 92.0482 108.27 91.9883C108.1 91.9284 107.954 91.8359 107.832 91.7109C107.71 91.5859 107.615 91.4232 107.547 91.2227C107.482 91.0221 107.449 90.7812 107.449 90.5V87.7734H108.172V90.5078C108.172 90.6979 108.193 90.8555 108.234 90.9805C108.279 91.1029 108.337 91.2005 108.41 91.2734C108.486 91.3438 108.569 91.3932 108.66 91.4219C108.754 91.4505 108.85 91.4648 108.949 91.4648C109.257 91.4648 109.5 91.4062 109.68 91.2891C109.859 91.1693 109.988 91.0091 110.066 90.8086C110.147 90.6055 110.188 90.3802 110.188 90.1328ZM112.602 88.4375V92H111.879V87.7734H112.582L112.602 88.4375ZM113.922 87.75L113.918 88.4219C113.858 88.4089 113.801 88.401 113.746 88.3984C113.694 88.3932 113.634 88.3906 113.566 88.3906C113.4 88.3906 113.253 88.4167 113.125 88.4688C112.997 88.5208 112.889 88.5938 112.801 88.6875C112.712 88.7812 112.642 88.8932 112.59 89.0234C112.54 89.151 112.508 89.2917 112.492 89.4453L112.289 89.5625C112.289 89.3073 112.314 89.0677 112.363 88.8438C112.415 88.6198 112.495 88.4219 112.602 88.25C112.708 88.0755 112.844 87.9401 113.008 87.8438C113.174 87.7448 113.372 87.6953 113.602 87.6953C113.654 87.6953 113.714 87.7018 113.781 87.7148C113.849 87.7253 113.896 87.737 113.922 87.75ZM116.926 91.2773V89.1016C116.926 88.9349 116.892 88.7904 116.824 88.668C116.759 88.543 116.66 88.4466 116.527 88.3789C116.395 88.3112 116.23 88.2773 116.035 88.2773C115.853 88.2773 115.693 88.3086 115.555 88.3711C115.419 88.4336 115.312 88.5156 115.234 88.6172C115.159 88.7188 115.121 88.8281 115.121 88.9453H114.398C114.398 88.7943 114.438 88.6445 114.516 88.4961C114.594 88.3477 114.706 88.2135 114.852 88.0938C115 87.9714 115.177 87.875 115.383 87.8047C115.591 87.7318 115.823 87.6953 116.078 87.6953C116.385 87.6953 116.656 87.7474 116.891 87.8516C117.128 87.9557 117.312 88.1133 117.445 88.3242C117.581 88.5326 117.648 88.7943 117.648 89.1094V91.0781C117.648 91.2188 117.66 91.3685 117.684 91.5273C117.71 91.6862 117.747 91.8229 117.797 91.9375V92H117.043C117.007 91.9167 116.978 91.806 116.957 91.668C116.936 91.5273 116.926 91.3971 116.926 91.2773ZM117.051 89.4375L117.059 89.9453H116.328C116.122 89.9453 115.939 89.9622 115.777 89.9961C115.616 90.0273 115.48 90.0755 115.371 90.1406C115.262 90.2057 115.178 90.2878 115.121 90.3867C115.064 90.4831 115.035 90.5964 115.035 90.7266C115.035 90.8594 115.065 90.9805 115.125 91.0898C115.185 91.1992 115.275 91.2865 115.395 91.3516C115.517 91.4141 115.667 91.4453 115.844 91.4453C116.065 91.4453 116.26 91.3984 116.43 91.3047C116.599 91.2109 116.733 91.0964 116.832 90.9609C116.934 90.8255 116.988 90.694 116.996 90.5664L117.305 90.9141C117.286 91.0234 117.237 91.1445 117.156 91.2773C117.076 91.4102 116.967 91.5378 116.832 91.6602C116.699 91.7799 116.54 91.8802 116.355 91.9609C116.173 92.0391 115.967 92.0781 115.738 92.0781C115.452 92.0781 115.201 92.0221 114.984 91.9102C114.771 91.7982 114.604 91.6484 114.484 91.4609C114.367 91.2708 114.309 91.0586 114.309 90.8242C114.309 90.5977 114.353 90.3984 114.441 90.2266C114.53 90.0521 114.658 89.9076 114.824 89.793C114.991 89.6758 115.191 89.5872 115.426 89.5273C115.66 89.4674 115.922 89.4375 116.211 89.4375H117.051Z" fill="white"/>
<path d="M51.4707 49.2324L40.2892 68.0489C40.1666 68.2552 39.8105 68.7136 39.2208 69.4241C38.6969 70.1178 37.9332 70.5573 36.9296 70.7427C37.2711 71.6714 37.2501 72.5524 36.8668 73.3854C36.5247 74.243 36.2923 74.7749 36.1697 74.9813L24.5836 94.4786L27.9879 96.5015L27.2523 97.7395L24.0337 95.8268C23.7036 95.6307 23.4593 95.2901 23.3008 94.8051C23.1836 94.3446 23.3212 93.7842 23.7135 93.124L34.9318 74.2456C35.2996 73.6267 35.5436 72.9342 35.6638 72.1681C35.7841 71.402 35.4973 70.757 34.8036 70.2331L35.5392 68.9952C36.1169 69.3384 36.6399 69.398 37.1082 69.1737C37.6423 68.9327 38.0648 68.5975 38.3758 68.1681C38.728 67.7633 38.9532 67.4783 39.0513 67.3133L49.865 49.1158C50.3554 48.2905 50.8476 47.885 51.3416 47.8994C51.8768 47.9383 52.227 48.0068 52.392 48.1049L55.6106 50.0175L54.875 51.2554L51.4707 49.2324Z" fill="#C24332"/>
<path d="M155.345 94.8331L144.059 76.0788C143.935 75.8732 143.7 75.3425 143.353 74.4869C142.99 73.6971 142.964 72.8163 143.276 71.8445C142.296 71.7058 141.53 71.2705 140.977 70.5386C140.384 69.8314 140.025 69.375 139.901 69.1694L128.207 49.7365L124.814 51.7783L124.072 50.5445L127.28 48.6141C127.609 48.4161 128.025 48.362 128.527 48.4519C128.988 48.5666 129.417 48.9529 129.812 49.611L141.135 68.4269C141.506 69.0438 142.001 69.5865 142.619 70.0549C143.237 70.5233 143.941 70.5759 144.731 70.2127L145.473 71.4465C144.897 71.793 144.597 72.2256 144.573 72.7442C144.533 73.3287 144.628 73.8596 144.86 74.3367C145.049 74.8386 145.194 75.1718 145.293 75.3364L156.207 93.4737C156.702 94.2962 156.827 94.9217 156.58 95.3501C156.293 95.8032 156.067 96.0793 155.902 96.1783L152.694 98.1087L151.952 96.8749L155.345 94.8331Z" fill="#C24332"/>
<path d="M63.16 140.504H85.048C85.288 140.504 85.864 140.576 86.776 140.72C87.64 140.816 88.408 141.248 89.08 142.016C89.704 141.248 90.472 140.816 91.384 140.72C92.296 140.576 92.872 140.504 93.112 140.504H115.792V136.544H117.232V140.288C117.232 140.672 117.064 141.056 116.728 141.44C116.392 141.776 115.84 141.944 115.072 141.944H93.112C92.392 141.944 91.672 142.088 90.952 142.376C90.232 142.664 89.824 143.24 89.728 144.104H88.288C88.288 143.432 88.072 142.952 87.64 142.664C87.16 142.328 86.656 142.136 86.128 142.088C85.6 141.992 85.24 141.944 85.048 141.944H63.88C62.92 141.944 62.32 141.728 62.08 141.296C61.84 140.816 61.72 140.48 61.72 140.288V136.544H63.16V140.504Z" fill="#C24332"/>
<line x1="92.5" y1="23" x2="92.5" y2="121" stroke="#C24332" stroke-dasharray="2 2"/>
</svg>
